<svg xmlns="http://www.w3.org/2000/svg" width="1500" height="920" viewBox="0 0 1500 920" role="img" aria-labelledby="title desc">
<title id="title">Hand-drawn backend latency curves</title>
<desc id="desc">Hand-drawn latency curves for backend comparison.</desc>
<defs>
  <marker id="arrow" markerWidth="10" markerHeight="10" refX="8" refY="4" orient="auto" markerUnits="strokeWidth"><path d="M0,0 C3,1 6,3 9,4 C6,5 3,7 0,8 Z" fill="#3f3f46"/></marker>
  <style>
    .bg{fill:#fffaf0}.paper{fill:#fffdf7;stroke:#c9bfae;stroke-width:2;rx:20}.title{font:800 32px "Comic Sans MS","Comic Neue","Chalkboard SE",cursive;fill:#1f2937}.subtitle{font:500 16px "Comic Sans MS","Comic Neue","Chalkboard SE",cursive;fill:#5f5a50}.label{font:700 14px "Comic Sans MS","Comic Neue","Chalkboard SE",cursive;fill:#1f2937}.axis{font:700 12px "Comic Sans MS","Comic Neue","Chalkboard SE",cursive;fill:#665f55}.tiny{font:600 11px "Comic Sans MS","Comic Neue","Chalkboard SE",cursive;fill:#665f55}.num{font:800 18px "Comic Sans MS","Comic Neue","Chalkboard SE",cursive;fill:#1f2937}.stat{font:800 26px "Comic Sans MS","Comic Neue","Chalkboard SE",cursive;fill:#1f2937}.small{font:500 13px "Comic Sans MS","Comic Neue","Chalkboard SE",cursive;fill:#5f5a50}.line{fill:none;stroke-width:3.2;stroke-linecap:round;stroke-linejoin:round}.thin{fill:none;stroke:#c9bfae;stroke-width:1.4;stroke-linecap:round}.tick{stroke:#e3dacd;stroke-width:1.2;stroke-dasharray:4 6}.dot{stroke:#fffdf7;stroke-width:2}.note{font:600 12px "Comic Sans MS","Comic Neue","Chalkboard SE",cursive;fill:#7c4a03}.arrow{stroke:#3f3f46;stroke-width:2.4;fill:none;marker-end:url(#arrow);stroke-linecap:round;stroke-linejoin:round}
  </style>
</defs>
<rect class="bg" width="1500" height="920"/>
<text x="42" y="54" class="title">Kernel Latency Across Decode GEMM Shapes</text>
<text x="44" y="84" class="subtitle">K=7168, gfx950. Lower is better; this view is detailed backup for the summary tables.</text>
<path class="line" d="M 940.0,56.0 L 968.0,56.0" stroke="#64748b" stroke-width="3.2"/><path class="line" d="M 938.8,56.0 L 968.0,57.0" stroke="#64748b" stroke-width="1.2" opacity="0.45"/><text x="976" y="61" class="axis">Torch</text>
<path class="line" d="M 1060.0,56.0 L 1088.0,56.0" stroke="#06b6d4" stroke-width="3.2"/><path class="line" d="M 1058.8,56.0 L 1088.0,57.0" stroke="#06b6d4" stroke-width="1.2" opacity="0.45"/><text x="1096" y="61" class="axis">Triton</text>
<path class="line" d="M 1180.0,56.0 L 1208.0,56.0" stroke="#f97316" stroke-width="3.2"/><path class="line" d="M 1178.8,56.0 L 1208.0,57.0" stroke="#f97316" stroke-width="1.2" opacity="0.45"/><text x="1216" y="61" class="axis">ASM</text>
<path class="line" d="M 1300.0,56.0 L 1328.0,56.0" stroke="#7c3aed" stroke-width="3.2"/><path class="line" d="M 1298.8,56.0 L 1328.0,57.0" stroke="#7c3aed" stroke-width="1.2" opacity="0.45"/><text x="1336" y="61" class="axis">Mixed</text>
<rect class="" x="50" y="110" width="690" height="365" rx="18" fill="#fffdf7" stroke="#c9bfae" stroke-width="2"/><rect x="49.3" y="109.4" width="690" height="365" rx="18" fill="none" stroke="#c9bfae" stroke-width="1" opacity="0.45"/>
<text x="95" y="141" class="label">N = 64</text>
<line class="tick" x1="95" y1="425.0" x2="695" y2="425.0"/><text x="63" y="429.0" class="axis">0</text>
<line class="tick" x1="95" y1="368.1" x2="695" y2="368.1"/><text x="63" y="372.0827540635356" class="axis">10</text>
<line class="tick" x1="95" y1="311.2" x2="695" y2="311.2"/><text x="63" y="315.16550812707123" class="axis">20</text>
<line class="tick" x1="95" y1="254.2" x2="695" y2="254.2"/><text x="63" y="258.24826219060685" class="axis">30</text>
<line class="tick" x1="95" y1="197.3" x2="695" y2="197.3"/><text x="63" y="201.3310162541425" class="axis">40</text>
<line class="tick" x1="95.0" y1="165" x2="95.0" y2="425"/><text x="88.0" y="449" class="axis">1</text>
<line class="tick" x1="180.7" y1="165" x2="180.7" y2="425"/><text x="173.71428571428572" y="449" class="axis">2</text>
<line class="tick" x1="266.4" y1="165" x2="266.4" y2="425"/><text x="259.42857142857144" y="449" class="axis">4</text>
<line class="tick" x1="352.1" y1="165" x2="352.1" y2="425"/><text x="345.1428571428571" y="449" class="axis">8</text>
<line class="tick" x1="437.9" y1="165" x2="437.9" y2="425"/><text x="430.85714285714283" y="449" class="axis">16</text>
<line class="tick" x1="523.6" y1="165" x2="523.6" y2="425"/><text x="516.5714285714286" y="449" class="axis">32</text>
<line class="tick" x1="609.3" y1="165" x2="609.3" y2="425"/><text x="602.2857142857142" y="449" class="axis">64</text>
<line class="tick" x1="695.0" y1="165" x2="695.0" y2="425"/><text x="688.0" y="449" class="axis">128</text>
<path class="line" d="M 95.0,374.2 L 180.7,376.8 L 266.4,376.5 L 352.1,376.3 L 437.9,378.4 L 523.6,372.5 L 609.3,374.4 L 695.0,363.3" stroke="#64748b" stroke-width="3.0"/><path class="line" d="M 93.8,374.2 L 180.7,377.8 L 267.6,375.5 L 350.9,376.3 L 437.9,379.4 L 524.8,371.5 L 608.1,374.4 L 695.0,364.3" stroke="#64748b" stroke-width="1.2" opacity="0.45"/>
<circle class="dot" cx="95.0" cy="374.2" r="3.8" fill="#64748b"/>
<circle class="dot" cx="180.7" cy="376.8" r="3.8" fill="#64748b"/>
<circle class="dot" cx="266.4" cy="376.5" r="3.8" fill="#64748b"/>
<circle class="dot" cx="352.1" cy="376.3" r="3.8" fill="#64748b"/>
<circle class="dot" cx="437.9" cy="378.4" r="3.8" fill="#64748b"/>
<circle class="dot" cx="523.6" cy="372.5" r="3.8" fill="#64748b"/>
<circle class="dot" cx="609.3" cy="374.4" r="3.8" fill="#64748b"/>
<circle class="dot" cx="695.0" cy="363.3" r="3.8" fill="#64748b"/>
<path class="line" d="M 95.0,291.5 L 180.7,291.5 L 266.4,290.9 L 352.1,291.2 L 437.9,323.8 L 523.6,311.6 L 609.3,274.6 L 695.0,181.4" stroke="#06b6d4" stroke-width="3.0"/><path class="line" d="M 93.8,291.5 L 180.7,292.5 L 267.6,289.9 L 350.9,291.2 L 437.9,324.8 L 524.8,310.6 L 608.1,274.6 L 695.0,182.4" stroke="#06b6d4" stroke-width="1.2" opacity="0.45"/>
<circle class="dot" cx="95.0" cy="291.5" r="3.8" fill="#06b6d4"/>
<circle class="dot" cx="180.7" cy="291.5" r="3.8" fill="#06b6d4"/>
<circle class="dot" cx="266.4" cy="290.9" r="3.8" fill="#06b6d4"/>
<circle class="dot" cx="352.1" cy="291.2" r="3.8" fill="#06b6d4"/>
<circle class="dot" cx="437.9" cy="323.8" r="3.8" fill="#06b6d4"/>
<circle class="dot" cx="523.6" cy="311.6" r="3.8" fill="#06b6d4"/>
<circle class="dot" cx="609.3" cy="274.6" r="3.8" fill="#06b6d4"/>
<circle class="dot" cx="695.0" cy="181.4" r="3.8" fill="#06b6d4"/>
<path class="line" d="M 95.0,397.7 L 180.7,397.1 L 266.4,396.6 L 352.1,397.1 L 437.9,396.4 L 523.6,395.5 L 609.3,392.0 L 695.0,384.6" stroke="#f97316" stroke-width="3.0"/><path class="line" d="M 93.8,397.7 L 180.7,398.1 L 267.6,395.6 L 350.9,397.1 L 437.9,397.4 L 524.8,394.5 L 608.1,392.0 L 695.0,385.6" stroke="#f97316" stroke-width="1.2" opacity="0.45"/>
<circle class="dot" cx="95.0" cy="397.7" r="3.8" fill="#f97316"/>
<circle class="dot" cx="180.7" cy="397.1" r="3.8" fill="#f97316"/>
<circle class="dot" cx="266.4" cy="396.6" r="3.8" fill="#f97316"/>
<circle class="dot" cx="352.1" cy="397.1" r="3.8" fill="#f97316"/>
<circle class="dot" cx="437.9" cy="396.4" r="3.8" fill="#f97316"/>
<circle class="dot" cx="523.6" cy="395.5" r="3.8" fill="#f97316"/>
<circle class="dot" cx="609.3" cy="392.0" r="3.8" fill="#f97316"/>
<circle class="dot" cx="695.0" cy="384.6" r="3.8" fill="#f97316"/>
<path class="line" d="M 95.0,399.0 L 180.7,396.8 L 266.4,397.3 L 352.1,396.8 L 437.9,395.6 L 523.6,396.1 L 609.3,396.7 L 695.0,391.6" stroke="#7c3aed" stroke-width="3.0"/><path class="line" d="M 93.8,399.0 L 180.7,397.8 L 267.6,396.3 L 350.9,396.8 L 437.9,396.6 L 524.8,395.1 L 608.1,396.7 L 695.0,392.6" stroke="#7c3aed" stroke-width="1.2" opacity="0.45"/>
<circle class="dot" cx="95.0" cy="399.0" r="3.8" fill="#7c3aed"/>
<circle class="dot" cx="180.7" cy="396.8" r="3.8" fill="#7c3aed"/>
<circle class="dot" cx="266.4" cy="397.3" r="3.8" fill="#7c3aed"/>
<circle class="dot" cx="352.1" cy="396.8" r="3.8" fill="#7c3aed"/>
<circle class="dot" cx="437.9" cy="395.6" r="3.8" fill="#7c3aed"/>
<circle class="dot" cx="523.6" cy="396.1" r="3.8" fill="#7c3aed"/>
<circle class="dot" cx="609.3" cy="396.7" r="3.8" fill="#7c3aed"/>
<circle class="dot" cx="695.0" cy="391.6" r="3.8" fill="#7c3aed"/>
<rect class="" x="745" y="110" width="690" height="365" rx="18" fill="#fffdf7" stroke="#c9bfae" stroke-width="2"/><rect x="744.3" y="109.4" width="690" height="365" rx="18" fill="none" stroke="#c9bfae" stroke-width="1" opacity="0.45"/>
<text x="790" y="141" class="label">N = 384</text>
<line class="tick" x1="790" y1="425.0" x2="1390" y2="425.0"/><text x="758" y="429.0" class="axis">0</text>
<line class="tick" x1="790" y1="368.1" x2="1390" y2="368.1"/><text x="758" y="372.0827540635356" class="axis">10</text>
<line class="tick" x1="790" y1="311.2" x2="1390" y2="311.2"/><text x="758" y="315.16550812707123" class="axis">20</text>
<line class="tick" x1="790" y1="254.2" x2="1390" y2="254.2"/><text x="758" y="258.24826219060685" class="axis">30</text>
<line class="tick" x1="790" y1="197.3" x2="1390" y2="197.3"/><text x="758" y="201.3310162541425" class="axis">40</text>
<line class="tick" x1="790.0" y1="165" x2="790.0" y2="425"/><text x="783.0" y="449" class="axis">1</text>
<line class="tick" x1="875.7" y1="165" x2="875.7" y2="425"/><text x="868.7142857142857" y="449" class="axis">2</text>
<line class="tick" x1="961.4" y1="165" x2="961.4" y2="425"/><text x="954.4285714285714" y="449" class="axis">4</text>
<line class="tick" x1="1047.1" y1="165" x2="1047.1" y2="425"/><text x="1040.142857142857" y="449" class="axis">8</text>
<line class="tick" x1="1132.9" y1="165" x2="1132.9" y2="425"/><text x="1125.857142857143" y="449" class="axis">16</text>
<line class="tick" x1="1218.6" y1="165" x2="1218.6" y2="425"/><text x="1211.5714285714284" y="449" class="axis">32</text>
<line class="tick" x1="1304.3" y1="165" x2="1304.3" y2="425"/><text x="1297.2857142857142" y="449" class="axis">64</text>
<line class="tick" x1="1390.0" y1="165" x2="1390.0" y2="425"/><text x="1383.0" y="449" class="axis">128</text>
<path class="line" d="M 790.0,369.0 L 875.7,366.3 L 961.4,366.1 L 1047.1,368.4 L 1132.9,366.6 L 1218.6,359.0 L 1304.3,358.3 L 1390.0,363.9" stroke="#64748b" stroke-width="3.0"/><path class="line" d="M 788.8,369.0 L 875.7,367.3 L 962.6,365.1 L 1045.9,368.4 L 1132.9,367.6 L 1219.8,358.0 L 1303.1,358.3 L 1390.0,364.9" stroke="#64748b" stroke-width="1.2" opacity="0.45"/>
<circle class="dot" cx="790.0" cy="369.0" r="3.8" fill="#64748b"/>
<circle class="dot" cx="875.7" cy="366.3" r="3.8" fill="#64748b"/>
<circle class="dot" cx="961.4" cy="366.1" r="3.8" fill="#64748b"/>
<circle class="dot" cx="1047.1" cy="368.4" r="3.8" fill="#64748b"/>
<circle class="dot" cx="1132.9" cy="366.6" r="3.8" fill="#64748b"/>
<circle class="dot" cx="1218.6" cy="359.0" r="3.8" fill="#64748b"/>
<circle class="dot" cx="1304.3" cy="358.3" r="3.8" fill="#64748b"/>
<circle class="dot" cx="1390.0" cy="363.9" r="3.8" fill="#64748b"/>
<path class="line" d="M 790.0,377.0 L 875.7,377.7 L 961.4,371.5 L 1047.1,377.1 L 1132.9,369.6 L 1218.6,379.6 L 1304.3,367.1 L 1390.0,361.9" stroke="#06b6d4" stroke-width="3.0"/><path class="line" d="M 788.8,377.0 L 875.7,378.7 L 962.6,370.5 L 1045.9,377.1 L 1132.9,370.6 L 1219.8,378.6 L 1303.1,367.1 L 1390.0,362.9" stroke="#06b6d4" stroke-width="1.2" opacity="0.45"/>
<circle class="dot" cx="790.0" cy="377.0" r="3.8" fill="#06b6d4"/>
<circle class="dot" cx="875.7" cy="377.7" r="3.8" fill="#06b6d4"/>
<circle class="dot" cx="961.4" cy="371.5" r="3.8" fill="#06b6d4"/>
<circle class="dot" cx="1047.1" cy="377.1" r="3.8" fill="#06b6d4"/>
<circle class="dot" cx="1132.9" cy="369.6" r="3.8" fill="#06b6d4"/>
<circle class="dot" cx="1218.6" cy="379.6" r="3.8" fill="#06b6d4"/>
<circle class="dot" cx="1304.3" cy="367.1" r="3.8" fill="#06b6d4"/>
<circle class="dot" cx="1390.0" cy="361.9" r="3.8" fill="#06b6d4"/>
<path class="line" d="M 790.0,373.9 L 875.7,374.1 L 961.4,374.0 L 1047.1,373.1 L 1132.9,373.9 L 1218.6,373.5 L 1304.3,370.2 L 1390.0,355.0" stroke="#f97316" stroke-width="3.0"/><path class="line" d="M 788.8,373.9 L 875.7,375.1 L 962.6,373.0 L 1045.9,373.1 L 1132.9,374.9 L 1219.8,372.5 L 1303.1,370.2 L 1390.0,356.0" stroke="#f97316" stroke-width="1.2" opacity="0.45"/>
<circle class="dot" cx="790.0" cy="373.9" r="3.8" fill="#f97316"/>
<circle class="dot" cx="875.7" cy="374.1" r="3.8" fill="#f97316"/>
<circle class="dot" cx="961.4" cy="374.0" r="3.8" fill="#f97316"/>
<circle class="dot" cx="1047.1" cy="373.1" r="3.8" fill="#f97316"/>
<circle class="dot" cx="1132.9" cy="373.9" r="3.8" fill="#f97316"/>
<circle class="dot" cx="1218.6" cy="373.5" r="3.8" fill="#f97316"/>
<circle class="dot" cx="1304.3" cy="370.2" r="3.8" fill="#f97316"/>
<circle class="dot" cx="1390.0" cy="355.0" r="3.8" fill="#f97316"/>
<path class="line" d="M 790.0,391.8 L 875.7,391.9 L 961.4,391.7 L 1047.1,390.8 L 1132.9,389.1 L 1218.6,386.6 L 1304.3,381.6 L 1390.0,369.8" stroke="#7c3aed" stroke-width="3.0"/><path class="line" d="M 788.8,391.8 L 875.7,392.9 L 962.6,390.7 L 1045.9,390.8 L 1132.9,390.1 L 1219.8,385.6 L 1303.1,381.6 L 1390.0,370.8" stroke="#7c3aed" stroke-width="1.2" opacity="0.45"/>
<circle class="dot" cx="790.0" cy="391.8" r="3.8" fill="#7c3aed"/>
<circle class="dot" cx="875.7" cy="391.9" r="3.8" fill="#7c3aed"/>
<circle class="dot" cx="961.4" cy="391.7" r="3.8" fill="#7c3aed"/>
<circle class="dot" cx="1047.1" cy="390.8" r="3.8" fill="#7c3aed"/>
<circle class="dot" cx="1132.9" cy="389.1" r="3.8" fill="#7c3aed"/>
<circle class="dot" cx="1218.6" cy="386.6" r="3.8" fill="#7c3aed"/>
<circle class="dot" cx="1304.3" cy="381.6" r="3.8" fill="#7c3aed"/>
<circle class="dot" cx="1390.0" cy="369.8" r="3.8" fill="#7c3aed"/>
<rect class="" x="50" y="465" width="690" height="365" rx="18" fill="#fffdf7" stroke="#c9bfae" stroke-width="2"/><rect x="49.3" y="464.4" width="690" height="365" rx="18" fill="none" stroke="#c9bfae" stroke-width="1" opacity="0.45"/>
<text x="95" y="496" class="label">N = 512</text>
<line class="tick" x1="95" y1="780.0" x2="695" y2="780.0"/><text x="63" y="784.0" class="axis">0</text>
<line class="tick" x1="95" y1="723.1" x2="695" y2="723.1"/><text x="63" y="727.0827540635356" class="axis">10</text>
<line class="tick" x1="95" y1="666.2" x2="695" y2="666.2"/><text x="63" y="670.1655081270712" class="axis">20</text>
<line class="tick" x1="95" y1="609.2" x2="695" y2="609.2"/><text x="63" y="613.2482621906069" class="axis">30</text>
<line class="tick" x1="95" y1="552.3" x2="695" y2="552.3"/><text x="63" y="556.3310162541425" class="axis">40</text>
<line class="tick" x1="95.0" y1="520" x2="95.0" y2="780"/><text x="88.0" y="804" class="axis">1</text>
<line class="tick" x1="180.7" y1="520" x2="180.7" y2="780"/><text x="173.71428571428572" y="804" class="axis">2</text>
<line class="tick" x1="266.4" y1="520" x2="266.4" y2="780"/><text x="259.42857142857144" y="804" class="axis">4</text>
<line class="tick" x1="352.1" y1="520" x2="352.1" y2="780"/><text x="345.1428571428571" y="804" class="axis">8</text>
<line class="tick" x1="437.9" y1="520" x2="437.9" y2="780"/><text x="430.85714285714283" y="804" class="axis">16</text>
<line class="tick" x1="523.6" y1="520" x2="523.6" y2="780"/><text x="516.5714285714286" y="804" class="axis">32</text>
<line class="tick" x1="609.3" y1="520" x2="609.3" y2="780"/><text x="602.2857142857142" y="804" class="axis">64</text>
<line class="tick" x1="695.0" y1="520" x2="695.0" y2="780"/><text x="688.0" y="804" class="axis">128</text>
<path class="line" d="M 95.0,722.5 L 180.7,722.2 L 266.4,721.8 L 352.1,719.6 L 437.9,719.5 L 523.6,718.5 L 609.3,712.4 L 695.0,715.5" stroke="#64748b" stroke-width="3.0"/><path class="line" d="M 93.8,722.5 L 180.7,723.2 L 267.6,720.8 L 350.9,719.6 L 437.9,720.5 L 524.8,717.5 L 608.1,712.4 L 695.0,716.5" stroke="#64748b" stroke-width="1.2" opacity="0.45"/>
<circle class="dot" cx="95.0" cy="722.5" r="3.8" fill="#64748b"/>
<circle class="dot" cx="180.7" cy="722.2" r="3.8" fill="#64748b"/>
<circle class="dot" cx="266.4" cy="721.8" r="3.8" fill="#64748b"/>
<circle class="dot" cx="352.1" cy="719.6" r="3.8" fill="#64748b"/>
<circle class="dot" cx="437.9" cy="719.5" r="3.8" fill="#64748b"/>
<circle class="dot" cx="523.6" cy="718.5" r="3.8" fill="#64748b"/>
<circle class="dot" cx="609.3" cy="712.4" r="3.8" fill="#64748b"/>
<circle class="dot" cx="695.0" cy="715.5" r="3.8" fill="#64748b"/>
<path class="line" d="M 95.0,617.7 L 180.7,618.9 L 266.4,618.5 L 352.1,617.4 L 437.9,648.1 L 523.6,618.1 L 609.3,593.6 L 695.0,532.4" stroke="#06b6d4" stroke-width="3.0"/><path class="line" d="M 93.8,617.7 L 180.7,619.9 L 267.6,617.5 L 350.9,617.4 L 437.9,649.1 L 524.8,617.1 L 608.1,593.6 L 695.0,533.4" stroke="#06b6d4" stroke-width="1.2" opacity="0.45"/>
<circle class="dot" cx="95.0" cy="617.7" r="3.8" fill="#06b6d4"/>
<circle class="dot" cx="180.7" cy="618.9" r="3.8" fill="#06b6d4"/>
<circle class="dot" cx="266.4" cy="618.5" r="3.8" fill="#06b6d4"/>
<circle class="dot" cx="352.1" cy="617.4" r="3.8" fill="#06b6d4"/>
<circle class="dot" cx="437.9" cy="648.1" r="3.8" fill="#06b6d4"/>
<circle class="dot" cx="523.6" cy="618.1" r="3.8" fill="#06b6d4"/>
<circle class="dot" cx="609.3" cy="593.6" r="3.8" fill="#06b6d4"/>
<circle class="dot" cx="695.0" cy="532.4" r="3.8" fill="#06b6d4"/>
<path class="line" d="M 95.0,723.6 L 180.7,723.0 L 266.4,723.3 L 352.1,723.2 L 437.9,721.7 L 523.6,722.3 L 609.3,718.9 L 695.0,703.1" stroke="#f97316" stroke-width="3.0"/><path class="line" d="M 93.8,723.6 L 180.7,724.0 L 267.6,722.3 L 350.9,723.2 L 437.9,722.7 L 524.8,721.3 L 608.1,718.9 L 695.0,704.1" stroke="#f97316" stroke-width="1.2" opacity="0.45"/>
<circle class="dot" cx="95.0" cy="723.6" r="3.8" fill="#f97316"/>
<circle class="dot" cx="180.7" cy="723.0" r="3.8" fill="#f97316"/>
<circle class="dot" cx="266.4" cy="723.3" r="3.8" fill="#f97316"/>
<circle class="dot" cx="352.1" cy="723.2" r="3.8" fill="#f97316"/>
<circle class="dot" cx="437.9" cy="721.7" r="3.8" fill="#f97316"/>
<circle class="dot" cx="523.6" cy="722.3" r="3.8" fill="#f97316"/>
<circle class="dot" cx="609.3" cy="718.9" r="3.8" fill="#f97316"/>
<circle class="dot" cx="695.0" cy="703.1" r="3.8" fill="#f97316"/>
<path class="line" d="M 95.0,745.5 L 180.7,745.6 L 266.4,745.1 L 352.1,743.5 L 437.9,741.5 L 523.6,740.1 L 609.3,735.8 L 695.0,725.1" stroke="#7c3aed" stroke-width="3.0"/><path class="line" d="M 93.8,745.5 L 180.7,746.6 L 267.6,744.1 L 350.9,743.5 L 437.9,742.5 L 524.8,739.1 L 608.1,735.8 L 695.0,726.1" stroke="#7c3aed" stroke-width="1.2" opacity="0.45"/>
<circle class="dot" cx="95.0" cy="745.5" r="3.8" fill="#7c3aed"/>
<circle class="dot" cx="180.7" cy="745.6" r="3.8" fill="#7c3aed"/>
<circle class="dot" cx="266.4" cy="745.1" r="3.8" fill="#7c3aed"/>
<circle class="dot" cx="352.1" cy="743.5" r="3.8" fill="#7c3aed"/>
<circle class="dot" cx="437.9" cy="741.5" r="3.8" fill="#7c3aed"/>
<circle class="dot" cx="523.6" cy="740.1" r="3.8" fill="#7c3aed"/>
<circle class="dot" cx="609.3" cy="735.8" r="3.8" fill="#7c3aed"/>
<circle class="dot" cx="695.0" cy="725.1" r="3.8" fill="#7c3aed"/>
<rect class="" x="745" y="465" width="690" height="365" rx="18" fill="#fffdf7" stroke="#c9bfae" stroke-width="2"/><rect x="744.3" y="464.4" width="690" height="365" rx="18" fill="none" stroke="#c9bfae" stroke-width="1" opacity="0.45"/>
<text x="790" y="496" class="label">N = 1024</text>
<line class="tick" x1="790" y1="780.0" x2="1390" y2="780.0"/><text x="758" y="784.0" class="axis">0</text>
<line class="tick" x1="790" y1="723.1" x2="1390" y2="723.1"/><text x="758" y="727.0827540635356" class="axis">10</text>
<line class="tick" x1="790" y1="666.2" x2="1390" y2="666.2"/><text x="758" y="670.1655081270712" class="axis">20</text>
<line class="tick" x1="790" y1="609.2" x2="1390" y2="609.2"/><text x="758" y="613.2482621906069" class="axis">30</text>
<line class="tick" x1="790" y1="552.3" x2="1390" y2="552.3"/><text x="758" y="556.3310162541425" class="axis">40</text>
<line class="tick" x1="790.0" y1="520" x2="790.0" y2="780"/><text x="783.0" y="804" class="axis">1</text>
<line class="tick" x1="875.7" y1="520" x2="875.7" y2="780"/><text x="868.7142857142857" y="804" class="axis">2</text>
<line class="tick" x1="961.4" y1="520" x2="961.4" y2="780"/><text x="954.4285714285714" y="804" class="axis">4</text>
<line class="tick" x1="1047.1" y1="520" x2="1047.1" y2="780"/><text x="1040.142857142857" y="804" class="axis">8</text>
<line class="tick" x1="1132.9" y1="520" x2="1132.9" y2="780"/><text x="1125.857142857143" y="804" class="axis">16</text>
<line class="tick" x1="1218.6" y1="520" x2="1218.6" y2="780"/><text x="1211.5714285714284" y="804" class="axis">32</text>
<line class="tick" x1="1304.3" y1="520" x2="1304.3" y2="780"/><text x="1297.2857142857142" y="804" class="axis">64</text>
<line class="tick" x1="1390.0" y1="520" x2="1390.0" y2="780"/><text x="1383.0" y="804" class="axis">128</text>
<path class="line" d="M 790.0,696.8 L 875.7,692.2 L 961.4,696.3 L 1047.1,697.3 L 1132.9,711.3 L 1218.6,710.2 L 1304.3,711.5 L 1390.0,690.3" stroke="#64748b" stroke-width="3.0"/><path class="line" d="M 788.8,696.8 L 875.7,693.2 L 962.6,695.3 L 1045.9,697.3 L 1132.9,712.3 L 1219.8,709.2 L 1303.1,711.5 L 1390.0,691.3" stroke="#64748b" stroke-width="1.2" opacity="0.45"/>
<circle class="dot" cx="790.0" cy="696.8" r="3.8" fill="#64748b"/>
<circle class="dot" cx="875.7" cy="692.2" r="3.8" fill="#64748b"/>
<circle class="dot" cx="961.4" cy="696.3" r="3.8" fill="#64748b"/>
<circle class="dot" cx="1047.1" cy="697.3" r="3.8" fill="#64748b"/>
<circle class="dot" cx="1132.9" cy="711.3" r="3.8" fill="#64748b"/>
<circle class="dot" cx="1218.6" cy="710.2" r="3.8" fill="#64748b"/>
<circle class="dot" cx="1304.3" cy="711.5" r="3.8" fill="#64748b"/>
<circle class="dot" cx="1390.0" cy="690.3" r="3.8" fill="#64748b"/>
<path class="line" d="M 790.0,607.3 L 875.7,607.2 L 961.4,607.3 L 1047.1,606.2 L 1132.9,640.3 L 1218.6,618.6 L 1304.3,592.7 L 1390.0,534.4" stroke="#06b6d4" stroke-width="3.0"/><path class="line" d="M 788.8,607.3 L 875.7,608.2 L 962.6,606.3 L 1045.9,606.2 L 1132.9,641.3 L 1219.8,617.6 L 1303.1,592.7 L 1390.0,535.4" stroke="#06b6d4" stroke-width="1.2" opacity="0.45"/>
<circle class="dot" cx="790.0" cy="607.3" r="3.8" fill="#06b6d4"/>
<circle class="dot" cx="875.7" cy="607.2" r="3.8" fill="#06b6d4"/>
<circle class="dot" cx="961.4" cy="607.3" r="3.8" fill="#06b6d4"/>
<circle class="dot" cx="1047.1" cy="606.2" r="3.8" fill="#06b6d4"/>
<circle class="dot" cx="1132.9" cy="640.3" r="3.8" fill="#06b6d4"/>
<circle class="dot" cx="1218.6" cy="618.6" r="3.8" fill="#06b6d4"/>
<circle class="dot" cx="1304.3" cy="592.7" r="3.8" fill="#06b6d4"/>
<circle class="dot" cx="1390.0" cy="534.4" r="3.8" fill="#06b6d4"/>
<path class="line" d="M 790.0,706.1 L 875.7,706.8 L 961.4,706.4 L 1047.1,706.5 L 1132.9,706.5 L 1218.6,704.6 L 1304.3,702.5 L 1390.0,696.8" stroke="#f97316" stroke-width="3.0"/><path class="line" d="M 788.8,706.1 L 875.7,707.8 L 962.6,705.4 L 1045.9,706.5 L 1132.9,707.5 L 1219.8,703.6 L 1303.1,702.5 L 1390.0,697.8" stroke="#f97316" stroke-width="1.2" opacity="0.45"/>
<circle class="dot" cx="790.0" cy="706.1" r="3.8" fill="#f97316"/>
<circle class="dot" cx="875.7" cy="706.8" r="3.8" fill="#f97316"/>
<circle class="dot" cx="961.4" cy="706.4" r="3.8" fill="#f97316"/>
<circle class="dot" cx="1047.1" cy="706.5" r="3.8" fill="#f97316"/>
<circle class="dot" cx="1132.9" cy="706.5" r="3.8" fill="#f97316"/>
<circle class="dot" cx="1218.6" cy="704.6" r="3.8" fill="#f97316"/>
<circle class="dot" cx="1304.3" cy="702.5" r="3.8" fill="#f97316"/>
<circle class="dot" cx="1390.0" cy="696.8" r="3.8" fill="#f97316"/>
<path class="line" d="M 790.0,742.6 L 875.7,742.9 L 961.4,742.5 L 1047.1,741.0 L 1132.9,738.6 L 1218.6,735.6 L 1304.3,725.3 L 1390.0,716.5" stroke="#7c3aed" stroke-width="3.0"/><path class="line" d="M 788.8,742.6 L 875.7,743.9 L 962.6,741.5 L 1045.9,741.0 L 1132.9,739.6 L 1219.8,734.6 L 1303.1,725.3 L 1390.0,717.5" stroke="#7c3aed" stroke-width="1.2" opacity="0.45"/>
<circle class="dot" cx="790.0" cy="742.6" r="3.8" fill="#7c3aed"/>
<circle class="dot" cx="875.7" cy="742.9" r="3.8" fill="#7c3aed"/>
<circle class="dot" cx="961.4" cy="742.5" r="3.8" fill="#7c3aed"/>
<circle class="dot" cx="1047.1" cy="741.0" r="3.8" fill="#7c3aed"/>
<circle class="dot" cx="1132.9" cy="738.6" r="3.8" fill="#7c3aed"/>
<circle class="dot" cx="1218.6" cy="735.6" r="3.8" fill="#7c3aed"/>
<circle class="dot" cx="1304.3" cy="725.3" r="3.8" fill="#7c3aed"/>
<circle class="dot" cx="1390.0" cy="716.5" r="3.8" fill="#7c3aed"/>
</svg>