<svg xmlns="http://www.w3.org/2000/svg" width="1500" height="860" viewBox="0 0 1500 860" role="img" aria-labelledby="title desc">
<title id="title">Hand-drawn Mixed Stream-K speedup table</title>
<desc id="desc">Hand-drawn benchmark speedup table for Mixed Stream-K.</desc>
<defs>
  <marker id="arrow" markerWidth="10" markerHeight="10" refX="8" refY="4" orient="auto" markerUnits="strokeWidth"><path d="M0,0 C3,1 6,3 9,4 C6,5 3,7 0,8 Z" fill="#3f3f46"/></marker>
  <style>
    .bg{fill:#fffaf0}.paper{fill:#fffdf7;stroke:#c9bfae;stroke-width:2;rx:20}.title{font:800 32px "Comic Sans MS","Comic Neue","Chalkboard SE",cursive;fill:#1f2937}.subtitle{font:500 16px "Comic Sans MS","Comic Neue","Chalkboard SE",cursive;fill:#5f5a50}.label{font:700 14px "Comic Sans MS","Comic Neue","Chalkboard SE",cursive;fill:#1f2937}.axis{font:700 12px "Comic Sans MS","Comic Neue","Chalkboard SE",cursive;fill:#665f55}.tiny{font:600 11px "Comic Sans MS","Comic Neue","Chalkboard SE",cursive;fill:#665f55}.num{font:800 18px "Comic Sans MS","Comic Neue","Chalkboard SE",cursive;fill:#1f2937}.stat{font:800 26px "Comic Sans MS","Comic Neue","Chalkboard SE",cursive;fill:#1f2937}.small{font:500 13px "Comic Sans MS","Comic Neue","Chalkboard SE",cursive;fill:#5f5a50}.line{fill:none;stroke-width:3.2;stroke-linecap:round;stroke-linejoin:round}.thin{fill:none;stroke:#c9bfae;stroke-width:1.4;stroke-linecap:round}.tick{stroke:#e3dacd;stroke-width:1.2;stroke-dasharray:4 6}.dot{stroke:#fffdf7;stroke-width:2}.note{font:600 12px "Comic Sans MS","Comic Neue","Chalkboard SE",cursive;fill:#7c4a03}.arrow{stroke:#3f3f46;stroke-width:2.4;fill:none;marker-end:url(#arrow);stroke-linecap:round;stroke-linejoin:round}
  </style>
</defs>
<rect class="bg" width="1500" height="860"/>
<text x="42" y="54" class="title">Benchmark Summary: Mixed Stream-K Speedup</text>
<text x="44" y="84" class="subtitle">K=7168, gfx950. Cell = min(Torch,Triton) latency / Mixed Stream-K latency. Higher is better.</text>
<g transform="rotate(-1.0 155 150)"><rect class="" x="60" y="116" width="190" height="70" rx="16" fill="#fffdf7" stroke="#c9bfae" stroke-width="2"/><rect x="59.6" y="116.6" width="190" height="70" rx="16" fill="none" stroke="#c9bfae" stroke-width="1" opacity="0.45"/><text x="84" y="150" class="stat">32</text><text x="84" y="172" class="tiny">decode shapes</text></g>
<g transform="rotate(0.7 375 150)"><rect class="" x="280" y="116" width="190" height="70" rx="16" fill="#fffdf7" stroke="#c9bfae" stroke-width="2"/><rect x="279.6" y="116.6" width="190" height="70" rx="16" fill="none" stroke="#c9bfae" stroke-width="1" opacity="0.45"/><text x="304" y="150" class="stat">1.64x</text><text x="304" y="172" class="tiny">avg speedup</text></g>
<g transform="rotate(-0.6 595 150)"><rect class="" x="500" y="116" width="190" height="70" rx="16" fill="#fffdf7" stroke="#c9bfae" stroke-width="2"/><rect x="499.6" y="116.6" width="190" height="70" rx="16" fill="none" stroke="#c9bfae" stroke-width="1" opacity="0.45"/><text x="524" y="150" class="stat">1.79x</text><text x="524" y="172" class="tiny">M &lt;= 8 avg</text></g>
<g transform="rotate(0.9 815 150)"><rect class="" x="720" y="116" width="190" height="70" rx="16" fill="#fffdf7" stroke="#c9bfae" stroke-width="2"/><rect x="719.6" y="116.6" width="190" height="70" rx="16" fill="none" stroke="#c9bfae" stroke-width="1" opacity="0.45"/><text x="744" y="150" class="stat">2.37x</text><text x="744" y="172" class="tiny">best shape</text></g>
<rect class="" x="70" y="205" width="1360" height="550" rx="20" fill="#fffdf7" stroke="#c9bfae" stroke-width="2"/><rect x="69.3" y="204.4" width="1360" height="550" rx="20" fill="none" stroke="#c9bfae" stroke-width="1" opacity="0.45"/>
<text x="105" y="262" class="label">N / M</text>
<text x="270" y="262" class="axis">1</text>
<text x="398" y="262" class="axis">2</text>
<text x="526" y="262" class="axis">4</text>
<text x="654" y="262" class="axis">8</text>
<text x="782" y="262" class="axis">16</text>
<text x="910" y="262" class="axis">32</text>
<text x="1038" y="262" class="axis">64</text>
<text x="1166" y="262" class="axis">128</text>
<text x="105" y="323" class="label">N=64</text>
<g transform="rotate(-0.36 276 318)"><rect class="" x="220" y="285" width="112" height="66" rx="12" fill="#ddd6fe" stroke="#ffffff" stroke-width="2"/><rect x="219.3" y="284.4" width="112" height="66" rx="12" fill="none" stroke="#ffffff" stroke-width="1" opacity="0.45"/><text x="242" y="313" class="num" fill="#1f2937">1.95x</text><text x="236" y="335" class="tiny" fill="#1f2937">4.6us vs 8.9us</text></g>
<g transform="rotate(-0.12 404 318)"><rect class="" x="348" y="285" width="112" height="66" rx="12" fill="#dbeafe" stroke="#ffffff" stroke-width="2"/><rect x="348.4" y="285.3" width="112" height="66" rx="12" fill="none" stroke="#ffffff" stroke-width="1" opacity="0.45"/><text x="370" y="313" class="num" fill="#1f2937">1.71x</text><text x="364" y="335" class="tiny" fill="#1f2937">5.0us vs 8.5us</text></g>
<g transform="rotate(0.12 532 318)"><rect class="" x="476" y="285" width="112" height="66" rx="12" fill="#dbeafe" stroke="#ffffff" stroke-width="2"/><rect x="475.6" y="284.7" width="112" height="66" rx="12" fill="none" stroke="#ffffff" stroke-width="1" opacity="0.45"/><text x="498" y="313" class="num" fill="#1f2937">1.75x</text><text x="492" y="335" class="tiny" fill="#1f2937">4.9us vs 8.5us</text></g>
<g transform="rotate(0.36 660 318)"><rect class="" x="604" y="285" width="112" height="66" rx="12" fill="#dbeafe" stroke="#ffffff" stroke-width="2"/><rect x="604.7" y="285.6" width="112" height="66" rx="12" fill="none" stroke="#ffffff" stroke-width="1" opacity="0.45"/><text x="626" y="313" class="num" fill="#1f2937">1.73x</text><text x="620" y="335" class="tiny" fill="#1f2937">5.0us vs 8.5us</text></g>
<g transform="rotate(-0.24 788 318)"><rect class="" x="732" y="285" width="112" height="66" rx="12" fill="#dbeafe" stroke="#ffffff" stroke-width="2"/><rect x="732.0" y="285.0" width="112" height="66" rx="12" fill="none" stroke="#ffffff" stroke-width="1" opacity="0.45"/><text x="754" y="313" class="num" fill="#1f2937">1.59x</text><text x="748" y="335" class="tiny" fill="#1f2937">5.2us vs 8.2us</text></g>
<g transform="rotate(0.00 916 318)"><rect class="" x="860" y="285" width="112" height="66" rx="12" fill="#ddd6fe" stroke="#ffffff" stroke-width="2"/><rect x="859.3" y="284.4" width="112" height="66" rx="12" fill="none" stroke="#ffffff" stroke-width="1" opacity="0.45"/><text x="882" y="313" class="num" fill="#1f2937">1.82x</text><text x="876" y="335" class="tiny" fill="#1f2937">5.1us vs 9.2us</text></g>
<g transform="rotate(0.24 1044 318)"><rect class="" x="988" y="285" width="112" height="66" rx="12" fill="#ddd6fe" stroke="#ffffff" stroke-width="2"/><rect x="988.4" y="285.3" width="112" height="66" rx="12" fill="none" stroke="#ffffff" stroke-width="1" opacity="0.45"/><text x="1010" y="313" class="num" fill="#1f2937">1.79x</text><text x="1004" y="335" class="tiny" fill="#1f2937">5.0us vs 8.9us</text></g>
<g transform="rotate(-0.36 1172 318)"><rect class="" x="1116" y="285" width="112" height="66" rx="12" fill="#ddd6fe" stroke="#ffffff" stroke-width="2"/><rect x="1115.7" y="284.7" width="112" height="66" rx="12" fill="none" stroke="#ffffff" stroke-width="1" opacity="0.45"/><text x="1138" y="313" class="num" fill="#1f2937">1.85x</text><text x="1132" y="335" class="tiny" fill="#1f2937">5.9us vs 10.8us</text></g>
<text x="105" y="401" class="label">N=384</text>
<g transform="rotate(0.24 276 396)"><rect class="" x="220" y="363" width="112" height="66" rx="12" fill="#dbeafe" stroke="#ffffff" stroke-width="2"/><rect x="220.3" y="363.0" width="112" height="66" rx="12" fill="none" stroke="#ffffff" stroke-width="1" opacity="0.45"/><text x="242" y="391" class="num" fill="#1f2937">1.44x</text><text x="236" y="413" class="tiny" fill="#1f2937">5.8us vs 8.4us</text></g>
<g transform="rotate(-0.36 404 396)"><rect class="" x="348" y="363" width="112" height="66" rx="12" fill="#dbeafe" stroke="#ffffff" stroke-width="2"/><rect x="347.6" y="362.4" width="112" height="66" rx="12" fill="none" stroke="#ffffff" stroke-width="1" opacity="0.45"/><text x="370" y="391" class="num" fill="#1f2937">1.43x</text><text x="364" y="413" class="tiny" fill="#1f2937">5.8us vs 8.3us</text></g>
<g transform="rotate(-0.12 532 396)"><rect class="" x="476" y="363" width="112" height="66" rx="12" fill="#dbeafe" stroke="#ffffff" stroke-width="2"/><rect x="476.7" y="363.3" width="112" height="66" rx="12" fill="none" stroke="#ffffff" stroke-width="1" opacity="0.45"/><text x="498" y="391" class="num" fill="#1f2937">1.61x</text><text x="492" y="413" class="tiny" fill="#1f2937">5.8us vs 9.4us</text></g>
<g transform="rotate(0.12 660 396)"><rect class="" x="604" y="363" width="112" height="66" rx="12" fill="#dbeafe" stroke="#ffffff" stroke-width="2"/><rect x="604.0" y="362.7" width="112" height="66" rx="12" fill="none" stroke="#ffffff" stroke-width="1" opacity="0.45"/><text x="626" y="391" class="num" fill="#1f2937">1.40x</text><text x="620" y="413" class="tiny" fill="#1f2937">6.0us vs 8.4us</text></g>
<g transform="rotate(0.36 788 396)"><rect class="" x="732" y="363" width="112" height="66" rx="12" fill="#dbeafe" stroke="#ffffff" stroke-width="2"/><rect x="731.3" y="363.6" width="112" height="66" rx="12" fill="none" stroke="#ffffff" stroke-width="1" opacity="0.45"/><text x="754" y="391" class="num" fill="#1f2937">1.55x</text><text x="748" y="413" class="tiny" fill="#1f2937">6.3us vs 9.7us</text></g>
<g transform="rotate(-0.24 916 396)"><rect class="" x="860" y="363" width="112" height="66" rx="12" fill="#ecfdf5" stroke="#ffffff" stroke-width="2"/><rect x="860.4" y="363.0" width="112" height="66" rx="12" fill="none" stroke="#ffffff" stroke-width="1" opacity="0.45"/><text x="882" y="391" class="num" fill="#1f2937">1.18x</text><text x="876" y="413" class="tiny" fill="#1f2937">6.8us vs 8.0us</text></g>
<g transform="rotate(0.00 1044 396)"><rect class="" x="988" y="363" width="112" height="66" rx="12" fill="#dbeafe" stroke="#ffffff" stroke-width="2"/><rect x="987.6" y="362.4" width="112" height="66" rx="12" fill="none" stroke="#ffffff" stroke-width="1" opacity="0.45"/><text x="1010" y="391" class="num" fill="#1f2937">1.33x</text><text x="1004" y="413" class="tiny" fill="#1f2937">7.6us vs 10.2us</text></g>
<g transform="rotate(0.24 1172 396)"><rect class="" x="1116" y="363" width="112" height="66" rx="12" fill="#ecfdf5" stroke="#ffffff" stroke-width="2"/><rect x="1116.7" y="363.3" width="112" height="66" rx="12" fill="none" stroke="#ffffff" stroke-width="1" opacity="0.45"/><text x="1138" y="391" class="num" fill="#1f2937">1.11x</text><text x="1132" y="413" class="tiny" fill="#1f2937">9.7us vs 10.7us</text></g>
<text x="105" y="479" class="label">N=512</text>
<g transform="rotate(0.00 276 474)"><rect class="" x="220" y="441" width="112" height="66" rx="12" fill="#dbeafe" stroke="#ffffff" stroke-width="2"/><rect x="219.7" y="441.6" width="112" height="66" rx="12" fill="none" stroke="#ffffff" stroke-width="1" opacity="0.45"/><text x="242" y="469" class="num" fill="#1f2937">1.67x</text><text x="236" y="491" class="tiny" fill="#1f2937">6.1us vs 10.1us</text></g>
<g transform="rotate(0.24 404 474)"><rect class="" x="348" y="441" width="112" height="66" rx="12" fill="#dbeafe" stroke="#ffffff" stroke-width="2"/><rect x="348.7" y="441.0" width="112" height="66" rx="12" fill="none" stroke="#ffffff" stroke-width="1" opacity="0.45"/><text x="370" y="469" class="num" fill="#1f2937">1.68x</text><text x="364" y="491" class="tiny" fill="#1f2937">6.0us vs 10.1us</text></g>
<g transform="rotate(-0.36 532 474)"><rect class="" x="476" y="441" width="112" height="66" rx="12" fill="#dbeafe" stroke="#ffffff" stroke-width="2"/><rect x="476.0" y="440.4" width="112" height="66" rx="12" fill="none" stroke="#ffffff" stroke-width="1" opacity="0.45"/><text x="498" y="469" class="num" fill="#1f2937">1.66x</text><text x="492" y="491" class="tiny" fill="#1f2937">6.1us vs 10.2us</text></g>
<g transform="rotate(-0.12 660 474)"><rect class="" x="604" y="441" width="112" height="66" rx="12" fill="#dbeafe" stroke="#ffffff" stroke-width="2"/><rect x="603.3" y="441.3" width="112" height="66" rx="12" fill="none" stroke="#ffffff" stroke-width="1" opacity="0.45"/><text x="626" y="469" class="num" fill="#1f2937">1.66x</text><text x="620" y="491" class="tiny" fill="#1f2937">6.4us vs 10.6us</text></g>
<g transform="rotate(0.12 788 474)"><rect class="" x="732" y="441" width="112" height="66" rx="12" fill="#dbeafe" stroke="#ffffff" stroke-width="2"/><rect x="732.4" y="440.7" width="112" height="66" rx="12" fill="none" stroke="#ffffff" stroke-width="1" opacity="0.45"/><text x="754" y="469" class="num" fill="#1f2937">1.57x</text><text x="748" y="491" class="tiny" fill="#1f2937">6.8us vs 10.6us</text></g>
<g transform="rotate(0.36 916 474)"><rect class="" x="860" y="441" width="112" height="66" rx="12" fill="#dbeafe" stroke="#ffffff" stroke-width="2"/><rect x="859.6" y="441.6" width="112" height="66" rx="12" fill="none" stroke="#ffffff" stroke-width="1" opacity="0.45"/><text x="882" y="469" class="num" fill="#1f2937">1.54x</text><text x="876" y="491" class="tiny" fill="#1f2937">7.0us vs 10.8us</text></g>
<g transform="rotate(-0.24 1044 474)"><rect class="" x="988" y="441" width="112" height="66" rx="12" fill="#dbeafe" stroke="#ffffff" stroke-width="2"/><rect x="988.7" y="441.0" width="112" height="66" rx="12" fill="none" stroke="#ffffff" stroke-width="1" opacity="0.45"/><text x="1010" y="469" class="num" fill="#1f2937">1.53x</text><text x="1004" y="491" class="tiny" fill="#1f2937">7.8us vs 11.9us</text></g>
<g transform="rotate(0.00 1172 474)"><rect class="" x="1116" y="441" width="112" height="66" rx="12" fill="#ecfdf5" stroke="#ffffff" stroke-width="2"/><rect x="1116.0" y="440.4" width="112" height="66" rx="12" fill="none" stroke="#ffffff" stroke-width="1" opacity="0.45"/><text x="1138" y="469" class="num" fill="#1f2937">1.17x</text><text x="1132" y="491" class="tiny" fill="#1f2937">9.7us vs 11.3us</text></g>
<text x="105" y="557" class="label">N=1024</text>
<g transform="rotate(-0.24 276 552)"><rect class="" x="220" y="519" width="112" height="66" rx="12" fill="#8b5cf6" stroke="#ffffff" stroke-width="2"/><rect x="220.7" y="518.7" width="112" height="66" rx="12" fill="none" stroke="#ffffff" stroke-width="1" opacity="0.45"/><text x="242" y="547" class="num" fill="#fffdf7">2.22x</text><text x="236" y="569" class="tiny" fill="#fffdf7">6.6us vs 14.6us</text></g>
<g transform="rotate(0.00 404 552)"><rect class="" x="348" y="519" width="112" height="66" rx="12" fill="#8b5cf6" stroke="#ffffff" stroke-width="2"/><rect x="348.0" y="519.6" width="112" height="66" rx="12" fill="none" stroke="#ffffff" stroke-width="1" opacity="0.45"/><text x="370" y="547" class="num" fill="#fffdf7">2.37x</text><text x="364" y="569" class="tiny" fill="#fffdf7">6.5us vs 15.4us</text></g>
<g transform="rotate(0.24 532 552)"><rect class="" x="476" y="519" width="112" height="66" rx="12" fill="#8b5cf6" stroke="#ffffff" stroke-width="2"/><rect x="475.3" y="519.0" width="112" height="66" rx="12" fill="none" stroke="#ffffff" stroke-width="1" opacity="0.45"/><text x="498" y="547" class="num" fill="#fffdf7">2.23x</text><text x="492" y="569" class="tiny" fill="#fffdf7">6.6us vs 14.7us</text></g>
<g transform="rotate(-0.36 660 552)"><rect class="" x="604" y="519" width="112" height="66" rx="12" fill="#8b5cf6" stroke="#ffffff" stroke-width="2"/><rect x="604.4" y="518.4" width="112" height="66" rx="12" fill="none" stroke="#ffffff" stroke-width="1" opacity="0.45"/><text x="626" y="547" class="num" fill="#fffdf7">2.12x</text><text x="620" y="569" class="tiny" fill="#fffdf7">6.9us vs 14.5us</text></g>
<g transform="rotate(-0.12 788 552)"><rect class="" x="732" y="519" width="112" height="66" rx="12" fill="#dbeafe" stroke="#ffffff" stroke-width="2"/><rect x="731.6" y="519.3" width="112" height="66" rx="12" fill="none" stroke="#ffffff" stroke-width="1" opacity="0.45"/><text x="754" y="547" class="num" fill="#1f2937">1.66x</text><text x="748" y="569" class="tiny" fill="#1f2937">7.3us vs 12.1us</text></g>
<g transform="rotate(0.12 916 552)"><rect class="" x="860" y="519" width="112" height="66" rx="12" fill="#dbeafe" stroke="#ffffff" stroke-width="2"/><rect x="860.7" y="518.7" width="112" height="66" rx="12" fill="none" stroke="#ffffff" stroke-width="1" opacity="0.45"/><text x="882" y="547" class="num" fill="#1f2937">1.57x</text><text x="876" y="569" class="tiny" fill="#1f2937">7.8us vs 12.3us</text></g>
<g transform="rotate(0.36 1044 552)"><rect class="" x="988" y="519" width="112" height="66" rx="12" fill="#dbeafe" stroke="#ffffff" stroke-width="2"/><rect x="988.0" y="519.6" width="112" height="66" rx="12" fill="none" stroke="#ffffff" stroke-width="1" opacity="0.45"/><text x="1010" y="547" class="num" fill="#1f2937">1.25x</text><text x="1004" y="569" class="tiny" fill="#1f2937">9.6us vs 12.0us</text></g>
<g transform="rotate(-0.24 1172 552)"><rect class="" x="1116" y="519" width="112" height="66" rx="12" fill="#dbeafe" stroke="#ffffff" stroke-width="2"/><rect x="1115.3" y="519.0" width="112" height="66" rx="12" fill="none" stroke="#ffffff" stroke-width="1" opacity="0.45"/><text x="1138" y="547" class="num" fill="#1f2937">1.41x</text><text x="1132" y="569" class="tiny" fill="#1f2937">11.2us vs 15.8us</text></g>
<path class="line" d="M 92.0,790.0 L 390.0,778.0 L 710.0,790.0 L 1050.0,772.0 L 1380.0,786.0" stroke="#f59e0b" stroke-width="2.2"/><path class="line" d="M 90.8,790.0 L 390.0,779.0 L 711.2,789.0 L 1048.8,772.0 L 1380.0,787.0" stroke="#f59e0b" stroke-width="1.2" opacity="0.45"/>
<text x="92" y="820" class="note">Small-M decode shapes are where extra K parallelism is most visible.</text>
</svg>