<svg xmlns="http://www.w3.org/2000/svg" width="1500" height="780" viewBox="0 0 1500 780" role="img" aria-labelledby="title desc">
<title id="title">Hand-drawn fastest backend table</title>
<desc id="desc">Hand-drawn table showing fastest backend by shape.</desc>
<defs>
  <marker id="arrow" markerWidth="10" markerHeight="10" refX="8" refY="4" orient="auto" markerUnits="strokeWidth"><path d="M0,0 C3,1 6,3 9,4 C6,5 3,7 0,8 Z" fill="#3f3f46"/></marker>
  <style>
    .bg{fill:#fffaf0}.paper{fill:#fffdf7;stroke:#c9bfae;stroke-width:2;rx:20}.title{font:800 32px "Comic Sans MS","Comic Neue","Chalkboard SE",cursive;fill:#1f2937}.subtitle{font:500 16px "Comic Sans MS","Comic Neue","Chalkboard SE",cursive;fill:#5f5a50}.label{font:700 14px "Comic Sans MS","Comic Neue","Chalkboard SE",cursive;fill:#1f2937}.axis{font:700 12px "Comic Sans MS","Comic Neue","Chalkboard SE",cursive;fill:#665f55}.tiny{font:600 11px "Comic Sans MS","Comic Neue","Chalkboard SE",cursive;fill:#665f55}.num{font:800 18px "Comic Sans MS","Comic Neue","Chalkboard SE",cursive;fill:#1f2937}.stat{font:800 26px "Comic Sans MS","Comic Neue","Chalkboard SE",cursive;fill:#1f2937}.small{font:500 13px "Comic Sans MS","Comic Neue","Chalkboard SE",cursive;fill:#5f5a50}.line{fill:none;stroke-width:3.2;stroke-linecap:round;stroke-linejoin:round}.thin{fill:none;stroke:#c9bfae;stroke-width:1.4;stroke-linecap:round}.tick{stroke:#e3dacd;stroke-width:1.2;stroke-dasharray:4 6}.dot{stroke:#fffdf7;stroke-width:2}.note{font:600 12px "Comic Sans MS","Comic Neue","Chalkboard SE",cursive;fill:#7c4a03}.arrow{stroke:#3f3f46;stroke-width:2.4;fill:none;marker-end:url(#arrow);stroke-linecap:round;stroke-linejoin:round}
  </style>
</defs>
<rect class="bg" width="1500" height="780"/>
<text x="42" y="54" class="title">Fastest Backend by Shape</text>
<text x="44" y="84" class="subtitle">K=7168. Purple = Mixed Stream-K, orange = tuned ASM.</text>
<rect class="" x="780" y="122" width="24" height="16" rx="4" fill="#ede9fe" stroke="#7c3aed" stroke-width="2"/><rect x="780.0" y="122.3" width="24" height="16" rx="4" fill="none" stroke="#7c3aed" stroke-width="1" opacity="0.45"/><text x="814" y="135" class="tiny">Mixed</text>
<rect class="" x="930" y="122" width="24" height="16" rx="4" fill="#ffedd5" stroke="#f97316" stroke-width="2"/><rect x="930.0" y="122.3" width="24" height="16" rx="4" fill="none" stroke="#f97316" stroke-width="1" opacity="0.45"/><text x="964" y="135" class="tiny">ASM</text>
<rect class="" x="1080" y="122" width="24" height="16" rx="4" fill="#f1f5f9" stroke="#64748b" stroke-width="2"/><rect x="1080.0" y="122.3" width="24" height="16" rx="4" fill="none" stroke="#64748b" stroke-width="1" opacity="0.45"/><text x="1114" y="135" class="tiny">Torch</text>
<rect class="" x="1230" y="122" width="24" height="16" rx="4" fill="#cffafe" stroke="#06b6d4" stroke-width="2"/><rect x="1230.0" y="122.3" width="24" height="16" rx="4" fill="none" stroke="#06b6d4" stroke-width="1" opacity="0.45"/><text x="1264" y="135" class="tiny">Triton</text>
<rect class="" x="70" y="165" width="1360" height="520" rx="20" fill="#fffdf7" stroke="#c9bfae" stroke-width="2"/><rect x="69.3" y="164.4" width="1360" height="520" rx="20" fill="none" stroke="#c9bfae" stroke-width="1" opacity="0.45"/>
<text x="105" y="222" class="label">N / M</text>
<text x="265" y="222" class="axis">1</text>
<text x="395" y="222" class="axis">2</text>
<text x="525" y="222" class="axis">4</text>
<text x="655" y="222" class="axis">8</text>
<text x="785" y="222" class="axis">16</text>
<text x="915" y="222" class="axis">32</text>
<text x="1045" y="222" class="axis">64</text>
<text x="1175" y="222" class="axis">128</text>
<text x="105" y="281" class="label">N=64</text>
<g transform="rotate(-0.36 271 275)"><rect class="" x="215" y="245" width="112" height="60" rx="12" fill="#ede9fe" stroke="#7c3aed" stroke-width="2"/><rect x="214.3" y="244.4" width="112" height="60" rx="12" fill="none" stroke="#7c3aed" stroke-width="1" opacity="0.45"/><text x="235" y="270" class="label">Mixed</text><text x="235" y="290" class="tiny">4.58 us</text></g>
<g transform="rotate(0.00 401 275)"><rect class="" x="345" y="245" width="112" height="60" rx="12" fill="#ffedd5" stroke="#f97316" stroke-width="2"/><rect x="344.3" y="244.4" width="112" height="60" rx="12" fill="none" stroke="#f97316" stroke-width="1" opacity="0.45"/><text x="365" y="270" class="label">ASM</text><text x="365" y="290" class="tiny">4.90 us</text></g>
<g transform="rotate(0.36 531 275)"><rect class="" x="475" y="245" width="112" height="60" rx="12" fill="#ede9fe" stroke="#7c3aed" stroke-width="2"/><rect x="474.3" y="244.4" width="112" height="60" rx="12" fill="none" stroke="#7c3aed" stroke-width="1" opacity="0.45"/><text x="495" y="270" class="label">Mixed</text><text x="495" y="290" class="tiny">4.87 us</text></g>
<g transform="rotate(-0.12 661 275)"><rect class="" x="605" y="245" width="112" height="60" rx="12" fill="#ffedd5" stroke="#f97316" stroke-width="2"/><rect x="604.3" y="244.4" width="112" height="60" rx="12" fill="none" stroke="#f97316" stroke-width="1" opacity="0.45"/><text x="625" y="270" class="label">ASM</text><text x="625" y="290" class="tiny">4.91 us</text></g>
<g transform="rotate(0.24 791 275)"><rect class="" x="735" y="245" width="112" height="60" rx="12" fill="#ffedd5" stroke="#f97316" stroke-width="2"/><rect x="734.3" y="244.4" width="112" height="60" rx="12" fill="none" stroke="#f97316" stroke-width="1" opacity="0.45"/><text x="755" y="270" class="label">ASM</text><text x="755" y="290" class="tiny">5.03 us</text></g>
<g transform="rotate(-0.24 921 275)"><rect class="" x="865" y="245" width="112" height="60" rx="12" fill="#ede9fe" stroke="#7c3aed" stroke-width="2"/><rect x="864.3" y="244.4" width="112" height="60" rx="12" fill="none" stroke="#7c3aed" stroke-width="1" opacity="0.45"/><text x="885" y="270" class="label">Mixed</text><text x="885" y="290" class="tiny">5.08 us</text></g>
<g transform="rotate(0.12 1051 275)"><rect class="" x="995" y="245" width="112" height="60" rx="12" fill="#ede9fe" stroke="#7c3aed" stroke-width="2"/><rect x="994.3" y="244.4" width="112" height="60" rx="12" fill="none" stroke="#7c3aed" stroke-width="1" opacity="0.45"/><text x="1015" y="270" class="label">Mixed</text><text x="1015" y="290" class="tiny">4.96 us</text></g>
<g transform="rotate(-0.36 1181 275)"><rect class="" x="1125" y="245" width="112" height="60" rx="12" fill="#ede9fe" stroke="#7c3aed" stroke-width="2"/><rect x="1124.3" y="244.4" width="112" height="60" rx="12" fill="none" stroke="#7c3aed" stroke-width="1" opacity="0.45"/><text x="1145" y="270" class="label">Mixed</text><text x="1145" y="290" class="tiny">5.86 us</text></g>
<text x="105" y="359" class="label">N=384</text>
<g transform="rotate(0.12 271 353)"><rect class="" x="215" y="323" width="112" height="60" rx="12" fill="#ede9fe" stroke="#7c3aed" stroke-width="2"/><rect x="215.3" y="323.0" width="112" height="60" rx="12" fill="none" stroke="#7c3aed" stroke-width="1" opacity="0.45"/><text x="235" y="348" class="label">Mixed</text><text x="235" y="368" class="tiny">5.84 us</text></g>
<g transform="rotate(-0.36 401 353)"><rect class="" x="345" y="323" width="112" height="60" rx="12" fill="#ede9fe" stroke="#7c3aed" stroke-width="2"/><rect x="345.4" y="323.0" width="112" height="60" rx="12" fill="none" stroke="#7c3aed" stroke-width="1" opacity="0.45"/><text x="365" y="348" class="label">Mixed</text><text x="365" y="368" class="tiny">5.81 us</text></g>
<g transform="rotate(0.00 531 353)"><rect class="" x="475" y="323" width="112" height="60" rx="12" fill="#ede9fe" stroke="#7c3aed" stroke-width="2"/><rect x="475.4" y="323.0" width="112" height="60" rx="12" fill="none" stroke="#7c3aed" stroke-width="1" opacity="0.45"/><text x="495" y="348" class="label">Mixed</text><text x="495" y="368" class="tiny">5.85 us</text></g>
<g transform="rotate(0.36 661 353)"><rect class="" x="605" y="323" width="112" height="60" rx="12" fill="#ede9fe" stroke="#7c3aed" stroke-width="2"/><rect x="605.4" y="323.0" width="112" height="60" rx="12" fill="none" stroke="#7c3aed" stroke-width="1" opacity="0.45"/><text x="625" y="348" class="label">Mixed</text><text x="625" y="368" class="tiny">6.00 us</text></g>
<g transform="rotate(-0.12 791 353)"><rect class="" x="735" y="323" width="112" height="60" rx="12" fill="#ede9fe" stroke="#7c3aed" stroke-width="2"/><rect x="735.4" y="323.0" width="112" height="60" rx="12" fill="none" stroke="#7c3aed" stroke-width="1" opacity="0.45"/><text x="755" y="348" class="label">Mixed</text><text x="755" y="368" class="tiny">6.30 us</text></g>
<g transform="rotate(0.24 921 353)"><rect class="" x="865" y="323" width="112" height="60" rx="12" fill="#ede9fe" stroke="#7c3aed" stroke-width="2"/><rect x="865.4" y="323.0" width="112" height="60" rx="12" fill="none" stroke="#7c3aed" stroke-width="1" opacity="0.45"/><text x="885" y="348" class="label">Mixed</text><text x="885" y="368" class="tiny">6.75 us</text></g>
<g transform="rotate(-0.24 1051 353)"><rect class="" x="995" y="323" width="112" height="60" rx="12" fill="#ede9fe" stroke="#7c3aed" stroke-width="2"/><rect x="995.4" y="323.0" width="112" height="60" rx="12" fill="none" stroke="#7c3aed" stroke-width="1" opacity="0.45"/><text x="1015" y="348" class="label">Mixed</text><text x="1015" y="368" class="tiny">7.63 us</text></g>
<g transform="rotate(0.12 1181 353)"><rect class="" x="1125" y="323" width="112" height="60" rx="12" fill="#ede9fe" stroke="#7c3aed" stroke-width="2"/><rect x="1125.3" y="323.0" width="112" height="60" rx="12" fill="none" stroke="#7c3aed" stroke-width="1" opacity="0.45"/><text x="1145" y="348" class="label">Mixed</text><text x="1145" y="368" class="tiny">9.70 us</text></g>
<text x="105" y="437" class="label">N=512</text>
<g transform="rotate(-0.24 271 431)"><rect class="" x="215" y="401" width="112" height="60" rx="12" fill="#ede9fe" stroke="#7c3aed" stroke-width="2"/><rect x="214.7" y="401.6" width="112" height="60" rx="12" fill="none" stroke="#7c3aed" stroke-width="1" opacity="0.45"/><text x="235" y="426" class="label">Mixed</text><text x="235" y="446" class="tiny">6.07 us</text></g>
<g transform="rotate(0.12 401 431)"><rect class="" x="345" y="401" width="112" height="60" rx="12" fill="#ede9fe" stroke="#7c3aed" stroke-width="2"/><rect x="344.6" y="401.6" width="112" height="60" rx="12" fill="none" stroke="#7c3aed" stroke-width="1" opacity="0.45"/><text x="365" y="426" class="label">Mixed</text><text x="365" y="446" class="tiny">6.04 us</text></g>
<g transform="rotate(-0.36 531 431)"><rect class="" x="475" y="401" width="112" height="60" rx="12" fill="#ede9fe" stroke="#7c3aed" stroke-width="2"/><rect x="474.6" y="401.6" width="112" height="60" rx="12" fill="none" stroke="#7c3aed" stroke-width="1" opacity="0.45"/><text x="495" y="426" class="label">Mixed</text><text x="495" y="446" class="tiny">6.14 us</text></g>
<g transform="rotate(0.00 661 431)"><rect class="" x="605" y="401" width="112" height="60" rx="12" fill="#ede9fe" stroke="#7c3aed" stroke-width="2"/><rect x="604.6" y="401.6" width="112" height="60" rx="12" fill="none" stroke="#7c3aed" stroke-width="1" opacity="0.45"/><text x="625" y="426" class="label">Mixed</text><text x="625" y="446" class="tiny">6.41 us</text></g>
<g transform="rotate(0.36 791 431)"><rect class="" x="735" y="401" width="112" height="60" rx="12" fill="#ede9fe" stroke="#7c3aed" stroke-width="2"/><rect x="734.6" y="401.6" width="112" height="60" rx="12" fill="none" stroke="#7c3aed" stroke-width="1" opacity="0.45"/><text x="755" y="426" class="label">Mixed</text><text x="755" y="446" class="tiny">6.76 us</text></g>
<g transform="rotate(-0.12 921 431)"><rect class="" x="865" y="401" width="112" height="60" rx="12" fill="#ede9fe" stroke="#7c3aed" stroke-width="2"/><rect x="864.6" y="401.6" width="112" height="60" rx="12" fill="none" stroke="#7c3aed" stroke-width="1" opacity="0.45"/><text x="885" y="426" class="label">Mixed</text><text x="885" y="446" class="tiny">7.01 us</text></g>
<g transform="rotate(0.24 1051 431)"><rect class="" x="995" y="401" width="112" height="60" rx="12" fill="#ede9fe" stroke="#7c3aed" stroke-width="2"/><rect x="994.6" y="401.6" width="112" height="60" rx="12" fill="none" stroke="#7c3aed" stroke-width="1" opacity="0.45"/><text x="1015" y="426" class="label">Mixed</text><text x="1015" y="446" class="tiny">7.77 us</text></g>
<g transform="rotate(-0.24 1181 431)"><rect class="" x="1125" y="401" width="112" height="60" rx="12" fill="#ede9fe" stroke="#7c3aed" stroke-width="2"/><rect x="1124.7" y="401.6" width="112" height="60" rx="12" fill="none" stroke="#7c3aed" stroke-width="1" opacity="0.45"/><text x="1145" y="426" class="label">Mixed</text><text x="1145" y="446" class="tiny">9.65 us</text></g>
<text x="105" y="515" class="label">N=1024</text>
<g transform="rotate(0.24 271 509)"><rect class="" x="215" y="479" width="112" height="60" rx="12" fill="#ede9fe" stroke="#7c3aed" stroke-width="2"/><rect x="215.7" y="478.7" width="112" height="60" rx="12" fill="none" stroke="#7c3aed" stroke-width="1" opacity="0.45"/><text x="235" y="504" class="label">Mixed</text><text x="235" y="524" class="tiny">6.58 us</text></g>
<g transform="rotate(-0.24 401 509)"><rect class="" x="345" y="479" width="112" height="60" rx="12" fill="#ede9fe" stroke="#7c3aed" stroke-width="2"/><rect x="345.7" y="478.7" width="112" height="60" rx="12" fill="none" stroke="#7c3aed" stroke-width="1" opacity="0.45"/><text x="365" y="504" class="label">Mixed</text><text x="365" y="524" class="tiny">6.52 us</text></g>
<g transform="rotate(0.12 531 509)"><rect class="" x="475" y="479" width="112" height="60" rx="12" fill="#ede9fe" stroke="#7c3aed" stroke-width="2"/><rect x="475.7" y="478.7" width="112" height="60" rx="12" fill="none" stroke="#7c3aed" stroke-width="1" opacity="0.45"/><text x="495" y="504" class="label">Mixed</text><text x="495" y="524" class="tiny">6.59 us</text></g>
<g transform="rotate(-0.36 661 509)"><rect class="" x="605" y="479" width="112" height="60" rx="12" fill="#ede9fe" stroke="#7c3aed" stroke-width="2"/><rect x="605.7" y="478.7" width="112" height="60" rx="12" fill="none" stroke="#7c3aed" stroke-width="1" opacity="0.45"/><text x="625" y="504" class="label">Mixed</text><text x="625" y="524" class="tiny">6.86 us</text></g>
<g transform="rotate(0.00 791 509)"><rect class="" x="735" y="479" width="112" height="60" rx="12" fill="#ede9fe" stroke="#7c3aed" stroke-width="2"/><rect x="735.7" y="478.7" width="112" height="60" rx="12" fill="none" stroke="#7c3aed" stroke-width="1" opacity="0.45"/><text x="755" y="504" class="label">Mixed</text><text x="755" y="524" class="tiny">7.28 us</text></g>
<g transform="rotate(0.36 921 509)"><rect class="" x="865" y="479" width="112" height="60" rx="12" fill="#ede9fe" stroke="#7c3aed" stroke-width="2"/><rect x="865.7" y="478.7" width="112" height="60" rx="12" fill="none" stroke="#7c3aed" stroke-width="1" opacity="0.45"/><text x="885" y="504" class="label">Mixed</text><text x="885" y="524" class="tiny">7.80 us</text></g>
<g transform="rotate(-0.12 1051 509)"><rect class="" x="995" y="479" width="112" height="60" rx="12" fill="#ede9fe" stroke="#7c3aed" stroke-width="2"/><rect x="995.7" y="478.7" width="112" height="60" rx="12" fill="none" stroke="#7c3aed" stroke-width="1" opacity="0.45"/><text x="1015" y="504" class="label">Mixed</text><text x="1015" y="524" class="tiny">9.62 us</text></g>
<g transform="rotate(0.24 1181 509)"><rect class="" x="1125" y="479" width="112" height="60" rx="12" fill="#ede9fe" stroke="#7c3aed" stroke-width="2"/><rect x="1125.7" y="478.7" width="112" height="60" rx="12" fill="none" stroke="#7c3aed" stroke-width="1" opacity="0.45"/><text x="1145" y="504" class="label">Mixed</text><text x="1145" y="524" class="tiny">11.16 us</text></g>
<text x="92" y="730" class="note">Win count: Mixed 29, ASM 3, Torch 0, Triton 0.</text>
</svg>