<svg xmlns="http://www.w3.org/2000/svg" width="1280" height="560" viewBox="0 0 1280 560" role="img" aria-labelledby="title desc">
  <title id="title">Interactive LLM decode serving scenario</title>
  <desc id="desc">A user-facing LLM serving timeline showing prefill followed by repeated decode steps, where small-M GEMMs dominate token generation latency.</desc>
  <defs>
    <marker id="arrow" markerWidth="10" markerHeight="10" refX="8" refY="3" orient="auto" markerUnits="strokeWidth">
      <path d="M0,0 L0,6 L9,3 z" fill="#475569"/>
    </marker>
    <style>
      .bg { fill: #fffaf0;}
      .title { font: 700 30px "Comic Sans MS", "Comic Neue", "Chalkboard SE", cursive; fill: #111827;}
      .subtitle { font: 500 16px "Comic Sans MS", "Comic Neue", "Chalkboard SE", cursive; fill: #475569;}
      .label { font: 700 18px "Comic Sans MS", "Comic Neue", "Chalkboard SE", cursive; fill: #111827;}
      .small { font: 500 14px "Comic Sans MS", "Comic Neue", "Chalkboard SE", cursive; fill: #475569;}
      .tiny { font: 600 12px "Comic Sans MS", "Comic Neue", "Chalkboard SE", cursive; fill: #64748b;}
      .panel { fill: #fffaf0; stroke: #d8d3c4; stroke-width: 2; rx: 22;}
      .request { fill: #eef2ff; stroke: #4f46e5; stroke-width: 3; rx: 18;}
      .prefill { fill: #ecfeff; stroke: #0891b2; stroke-width: 3; rx: 14;}
      .decode { fill: #fff7ed; stroke: #f97316; stroke-width: 3; rx: 14;}
      .gemm { fill: #fdf2f8; stroke: #db2777; stroke-width: 2; rx: 10;}
      .metric { fill: #f0fdf4; stroke: #16a34a; stroke-width: 2; rx: 14;}
      .arrow { stroke: #475569; stroke-width: 2.5; fill: none; marker-end: url(#arrow); ; stroke-linecap: round; stroke-linejoin: round}
      .dash { stroke-dasharray: 7 6;}
      .sketch {}
    </style>
  </defs>

  <rect class="bg" width="1280" height="560"/>
  <text x="44" y="52" class="title">Interactive LLM Serving: Why Decode GEMM Matters</text>
  <text x="44" y="82" class="subtitle">User experience depends on fast first-token latency and smooth token streaming, so repeated decode kernels become visible.</text>

  <rect class="panel" x="42" y="122" width="1196" height="370"/>

  <rect class="request" x="86" y="190" width="180" height="80"/>
  <text x="128" y="225" class="label">User request</text>
  <text x="111" y="250" class="small">chat / code / agent</text>

  <path class="arrow" d="M 266 230 L 334 230"/>

  <rect class="prefill" x="338" y="170" width="190" height="120"/>
  <text x="405" y="208" class="label">Prefill</text>
  <text x="368" y="234" class="small">many prompt tokens</text>
  <text x="382" y="258" class="small">larger effective M</text>

  <path class="arrow" d="M 528 230 L 596 230"/>

  <rect class="decode" x="600" y="150" width="94" height="158"/>
  <text x="622" y="185" class="label">Decode</text>
  <text x="628" y="211" class="small">step 1</text>
  <rect class="gemm" x="620" y="236" width="54" height="40"/>
  <text x="632" y="260" class="tiny">GEMM</text>

  <path class="arrow" d="M 694 230 L 724 230"/>

  <rect class="decode" x="728" y="150" width="94" height="158"/>
  <text x="750" y="185" class="label">Decode</text>
  <text x="756" y="211" class="small">step 2</text>
  <rect class="gemm" x="748" y="236" width="54" height="40"/>
  <text x="760" y="260" class="tiny">GEMM</text>

  <path class="arrow" d="M 822 230 L 852 230"/>

  <rect class="decode" x="856" y="150" width="94" height="158"/>
  <text x="878" y="185" class="label">Decode</text>
  <text x="884" y="211" class="small">step 3</text>
  <rect class="gemm" x="876" y="236" width="54" height="40"/>
  <text x="888" y="260" class="tiny">GEMM</text>

  <path class="arrow" d="M 950 230 C 980 230, 992 230, 1018 230"/>
  <text x="973" y="215" class="small">...</text>

  <rect class="decode" x="1022" y="150" width="94" height="158"/>
  <text x="1044" y="185" class="label">Decode</text>
  <text x="1046" y="211" class="small">step T</text>
  <rect class="gemm" x="1042" y="236" width="54" height="40"/>
  <text x="1054" y="260" class="tiny">GEMM</text>

  <path class="arrow" d="M 646 309 L 646 356"/>
  <path class="arrow" d="M 774 309 L 774 356"/>
  <path class="arrow" d="M 902 309 L 902 356"/>
  <path class="arrow" d="M 1068 309 L 1068 356"/>

  <rect class="gemm" x="566" y="362" width="590" height="70"/>
  <text x="706" y="392" class="label">Repeated small-M GEMMs</text>
  <text x="662" y="416" class="small">small active-token count, large hidden dimensions, same shapes repeated across decode steps</text>

  <rect class="metric" x="92" y="350" width="330" height="84"/>
  <text x="128" y="382" class="label">User-visible metrics</text>
  <text x="118" y="408" class="small">TTFT, TPOT, ITL, streaming smoothness</text>

  <path class="arrow dash" d="M 422 392 L 560 392"/>
</svg>
