<svg xmlns="http://www.w3.org/2000/svg" width="1200" height="700" viewBox="0 0 1200 700" role="img" aria-labelledby="title desc">
  <title id="title">HGEMM BF16 Benchmark</title>
  <desc id="desc">Bar chart comparing HGEMM and Torch hipBLAS BF16 throughput in TFLOPS for four GEMM benchmark shapes.</desc>
  <rect width="1200" height="700" fill="#ffffff"/>
  <text x="64" y="46" font-family="Arial, sans-serif" font-size="26" font-weight="700" fill="#111827">HGEMM BF16 Benchmark</text>
  <text x="64" y="76" font-family="Arial, sans-serif" font-size="14" fill="#4b5563">TFLOPS computed from average CUDA latency over 100 profiled calls, warmup=500, niters=600</text>

  <rect x="870" y="112" width="270" height="116" rx="10" fill="#f9fafb" stroke="#e5e7eb"/>
  <rect x="892" y="140" width="18" height="18" fill="#2563eb"/>
  <text x="920" y="154" font-family="Arial, sans-serif" font-size="14" fill="#111827">HGEMM</text>
  <rect x="892" y="174" width="18" height="18" fill="#f97316"/>
  <text x="920" y="188" font-family="Arial, sans-serif" font-size="14" fill="#111827">Torch hipBLAS</text>
  <text x="892" y="214" font-family="Arial, sans-serif" font-size="13" fill="#4b5563">Speedup = HGEMM / hipBLAS</text>

  <line x1="150" y1="515" x2="830" y2="515" stroke="#111827" stroke-width="1.5"/>
  <line x1="150" y1="125" x2="150" y2="515" stroke="#111827" stroke-width="1.5"/>
  <text x="34" y="320" transform="rotate(-90 34 320)" font-family="Arial, sans-serif" font-size="14" fill="#374151">BF16 throughput (TFLOPS, higher is better)</text>

  <g font-family="Arial, sans-serif" font-size="12" fill="#6b7280">
    <line x1="150" y1="515" x2="830" y2="515" stroke="#e5e7eb"/>
    <text x="136" y="519" text-anchor="end">0</text>
    <line x1="150" y1="417.5" x2="830" y2="417.5" stroke="#e5e7eb"/>
    <text x="136" y="421.5" text-anchor="end">500</text>
    <line x1="150" y1="320" x2="830" y2="320" stroke="#e5e7eb"/>
    <text x="136" y="324" text-anchor="end">1000</text>
    <line x1="150" y1="222.5" x2="830" y2="222.5" stroke="#e5e7eb"/>
    <text x="136" y="226.5" text-anchor="end">1500</text>
    <line x1="150" y1="125" x2="830" y2="125" stroke="#e5e7eb"/>
    <text x="136" y="129" text-anchor="end">2000</text>
  </g>

  <g font-family="Arial, sans-serif">
    <rect x="200" y="208.11" width="34" height="306.89" rx="4" fill="#2563eb"/>
    <rect x="240" y="203.43" width="34" height="311.57" rx="4" fill="#f97316"/>
    <text x="217" y="198" text-anchor="middle" font-size="12" fill="#111827">1573.8</text>
    <text x="257" y="193" text-anchor="middle" font-size="12" fill="#111827">1597.8</text>
    <text x="237" y="544" text-anchor="middle" font-size="13" fill="#111827">8192x8192x8192</text>
    <text x="237" y="566" text-anchor="middle" font-size="12" fill="#4b5563">HT, bias</text>
    <rect x="195" y="586" width="84" height="24" rx="12" fill="#eff6ff" stroke="#bfdbfe"/>
    <text x="237" y="603" text-anchor="middle" font-size="12" font-weight="700" fill="#1d4ed8">0.986x</text>
  </g>

  <g font-family="Arial, sans-serif">
    <rect x="370" y="206.65" width="34" height="308.35" rx="4" fill="#2563eb"/>
    <rect x="410" y="222.52" width="34" height="292.48" rx="4" fill="#f97316"/>
    <text x="387" y="197" text-anchor="middle" font-size="12" fill="#111827">1581.3</text>
    <text x="427" y="213" text-anchor="middle" font-size="12" fill="#111827">1499.9</text>
    <text x="407" y="544" text-anchor="middle" font-size="13" fill="#111827">4096x4096x8192</text>
    <text x="407" y="566" text-anchor="middle" font-size="12" fill="#4b5563">HT, bias</text>
    <rect x="365" y="586" width="84" height="24" rx="12" fill="#ecfdf5" stroke="#bbf7d0"/>
    <text x="407" y="603" text-anchor="middle" font-size="12" font-weight="700" fill="#047857">1.054x</text>
  </g>

  <g font-family="Arial, sans-serif">
    <rect x="540" y="228.51" width="34" height="286.49" rx="4" fill="#2563eb"/>
    <rect x="580" y="225.13" width="34" height="289.87" rx="4" fill="#f97316"/>
    <text x="557" y="219" text-anchor="middle" font-size="12" fill="#111827">1469.2</text>
    <text x="597" y="215" text-anchor="middle" font-size="12" fill="#111827">1486.5</text>
    <text x="577" y="544" text-anchor="middle" font-size="13" fill="#111827">4096x4096x4096</text>
    <text x="577" y="566" text-anchor="middle" font-size="12" fill="#4b5563">HT, bias</text>
    <rect x="535" y="586" width="84" height="24" rx="12" fill="#eff6ff" stroke="#bfdbfe"/>
    <text x="577" y="603" text-anchor="middle" font-size="12" font-weight="700" fill="#1d4ed8">0.988x</text>
  </g>

  <g font-family="Arial, sans-serif">
    <rect x="710" y="373.61" width="34" height="141.39" rx="4" fill="#2563eb"/>
    <rect x="750" y="394.59" width="34" height="120.41" rx="4" fill="#f97316"/>
    <text x="727" y="364" text-anchor="middle" font-size="12" fill="#111827">725.1</text>
    <text x="767" y="385" text-anchor="middle" font-size="12" fill="#111827">617.5</text>
    <text x="747" y="544" text-anchor="middle" font-size="13" fill="#111827">2048x2048x2048</text>
    <text x="747" y="566" text-anchor="middle" font-size="12" fill="#4b5563">FT, bias</text>
    <rect x="705" y="586" width="84" height="24" rx="12" fill="#ecfdf5" stroke="#bbf7d0"/>
    <text x="747" y="603" text-anchor="middle" font-size="12" font-weight="700" fill="#047857">1.174x</text>
  </g>

  <text x="870" y="286" font-family="Arial, sans-serif" font-size="15" font-weight="700" fill="#111827">Summary</text>
  <text x="870" y="314" font-family="Arial, sans-serif" font-size="13" fill="#374151">Best speedup: 2048x2048x2048, 1.174x</text>
  <text x="870" y="338" font-family="Arial, sans-serif" font-size="13" fill="#374151">Peak HGEMM:</text>
  <text x="870" y="362" font-family="Arial, sans-serif" font-size="13" fill="#374151">4096x4096x8192, 1581.3 TFLOPS</text>
  <text x="870" y="386" font-family="Arial, sans-serif" font-size="13" fill="#374151">Profiler calls: 100 per kernel</text>
</svg>
