<svg xmlns="http://www.w3.org/2000/svg" width="1100" height="620" viewBox="0 0 1100 620" role="img" aria-labelledby="title desc">
  <title id="title">HGEMM BF16 Benchmark</title>
  <desc id="desc">Bar chart comparing HGEMM and Torch hipBLAS CUDA latency for four BF16 GEMM benchmark shapes.</desc>
  <rect width="1100" height="620" fill="#ffffff"/>
  <text x="60" y="42" font-family="Arial, sans-serif" font-size="26" font-weight="700" fill="#111827">HGEMM BF16 Benchmark</text>
  <text x="60" y="68" font-family="Arial, sans-serif" font-size="14" fill="#4b5563">Average CUDA latency from 100 profiled calls, warmup=500, niters=600</text>

  <rect x="828" y="88" width="206" height="116" rx="10" fill="#f9fafb" stroke="#e5e7eb"/>
  <rect x="850" y="116" width="18" height="18" fill="#2563eb"/>
  <text x="878" y="130" font-family="Arial, sans-serif" font-size="14" fill="#111827">HGEMM</text>
  <rect x="850" y="150" width="18" height="18" fill="#f97316"/>
  <text x="878" y="164" font-family="Arial, sans-serif" font-size="14" fill="#111827">Torch hipBLAS</text>
  <text x="850" y="190" font-family="Arial, sans-serif" font-size="13" fill="#4b5563">Speedup = hipBLAS / HGEMM</text>

  <line x1="80" y1="480" x2="780" y2="480" stroke="#111827" stroke-width="1.5"/>
  <line x1="80" y1="80" x2="80" y2="480" stroke="#111827" stroke-width="1.5"/>
  <text x="20" y="285" transform="rotate(-90 20 285)" font-family="Arial, sans-serif" font-size="14" fill="#374151">CUDA latency (us, lower is better)</text>

  <g font-family="Arial, sans-serif" font-size="12" fill="#6b7280">
    <line x1="80" y1="480" x2="780" y2="480" stroke="#e5e7eb"/>
    <text x="48" y="484">0</text>
    <line x1="80" y1="400" x2="780" y2="400" stroke="#e5e7eb"/>
    <text x="36" y="404">150</text>
    <line x1="80" y1="320" x2="780" y2="320" stroke="#e5e7eb"/>
    <text x="36" y="324">300</text>
    <line x1="80" y1="240" x2="780" y2="240" stroke="#e5e7eb"/>
    <text x="36" y="244">450</text>
    <line x1="80" y1="160" x2="780" y2="160" stroke="#e5e7eb"/>
    <text x="36" y="164">600</text>
    <line x1="80" y1="80" x2="780" y2="80" stroke="#e5e7eb"/>
    <text x="36" y="84">750</text>
  </g>

  <g font-family="Arial, sans-serif">
    <rect x="132" y="105.16" width="34" height="374.84" rx="4" fill="#2563eb"/>
    <rect x="170" y="110.58" width="34" height="369.42" rx="4" fill="#f97316"/>
    <text x="149" y="95" text-anchor="middle" font-size="12" fill="#111827">702.8</text>
    <text x="187" y="100" text-anchor="middle" font-size="12" fill="#111827">692.7</text>
    <text x="168" y="508" text-anchor="middle" font-size="13" fill="#111827">8192x8192x8192</text>
    <text x="168" y="530" text-anchor="middle" font-size="12" fill="#4b5563">HT, bias</text>
    <rect x="126" y="548" width="84" height="24" rx="12" fill="#eff6ff" stroke="#bfdbfe"/>
    <text x="168" y="565" text-anchor="middle" font-size="12" font-weight="700" fill="#1d4ed8">0.986x</text>
  </g>

  <g font-family="Arial, sans-serif">
    <rect x="302" y="383.13" width="34" height="96.87" rx="4" fill="#2563eb"/>
    <rect x="340" y="381.52" width="34" height="98.48" rx="4" fill="#f97316"/>
    <text x="319" y="373" text-anchor="middle" font-size="12" fill="#111827">181.6</text>
    <text x="357" y="371" text-anchor="middle" font-size="12" fill="#111827">184.6</text>
    <text x="338" y="508" text-anchor="middle" font-size="13" fill="#111827">4096x4096x8192</text>
    <text x="338" y="530" text-anchor="middle" font-size="12" fill="#4b5563">HT, bias</text>
    <rect x="296" y="548" width="84" height="24" rx="12" fill="#ecfdf5" stroke="#bbf7d0"/>
    <text x="338" y="565" text-anchor="middle" font-size="12" font-weight="700" fill="#047857">1.017x</text>
  </g>

  <g font-family="Arial, sans-serif">
    <rect x="472" y="430.41" width="34" height="49.59" rx="4" fill="#2563eb"/>
    <rect x="510" y="431.08" width="34" height="48.92" rx="4" fill="#f97316"/>
    <text x="489" y="420" text-anchor="middle" font-size="12" fill="#111827">93.0</text>
    <text x="527" y="421" text-anchor="middle" font-size="12" fill="#111827">91.7</text>
    <text x="508" y="508" text-anchor="middle" font-size="13" fill="#111827">4096x4096x4096</text>
    <text x="508" y="530" text-anchor="middle" font-size="12" fill="#4b5563">HT, bias</text>
    <rect x="466" y="548" width="84" height="24" rx="12" fill="#eff6ff" stroke="#bfdbfe"/>
    <text x="508" y="565" text-anchor="middle" font-size="12" font-weight="700" fill="#1d4ed8">0.986x</text>
  </g>

  <g font-family="Arial, sans-serif">
    <rect x="642" y="467.67" width="34" height="12.33" rx="4" fill="#2563eb"/>
    <rect x="680" y="465.93" width="34" height="14.07" rx="4" fill="#f97316"/>
    <text x="659" y="457" text-anchor="middle" font-size="12" fill="#111827">23.1</text>
    <text x="697" y="456" text-anchor="middle" font-size="12" fill="#111827">26.4</text>
    <text x="678" y="508" text-anchor="middle" font-size="13" fill="#111827">2048x2048x2048</text>
    <text x="678" y="530" text-anchor="middle" font-size="12" fill="#4b5563">FT, bias</text>
    <rect x="636" y="548" width="84" height="24" rx="12" fill="#ecfdf5" stroke="#bbf7d0"/>
    <text x="678" y="565" text-anchor="middle" font-size="12" font-weight="700" fill="#047857">1.141x</text>
  </g>

  <text x="828" y="254" font-family="Arial, sans-serif" font-size="15" font-weight="700" fill="#111827">Summary</text>
  <text x="828" y="282" font-family="Arial, sans-serif" font-size="13" fill="#374151">Best speedup: 2048x2048x2048, 1.141x</text>
  <text x="828" y="306" font-family="Arial, sans-serif" font-size="13" fill="#374151">Largest case: 8192x8192x8192, 702.8 us</text>
  <text x="828" y="330" font-family="Arial, sans-serif" font-size="13" fill="#374151">Profiler calls: 100 per kernel</text>
</svg>
