<svg xmlns="http://www.w3.org/2000/svg" width="1200" height="700" viewBox="0 0 1200 700" role="img" aria-labelledby="title desc">
  <title id="title">HGEMM BF16 Benchmark</title>
  <desc id="desc">Bar chart comparing HGEMM and Torch hipBLAS BF16 throughput in TFLOPS for six GEMM benchmark shapes.</desc>
  <rect width="1200" height="700" fill="#ffffff"/>
  <text x="64" y="46" font-family="Arial, sans-serif" font-size="26" font-weight="700" fill="#111827">HGEMM BF16 Benchmark</text>
  <text x="64" y="76" font-family="Arial, sans-serif" font-size="14" fill="#4b5563">TFLOPS computed from Self CUDA total / 100 profiled calls, warmup=500, niters=600</text>

  <rect x="870" y="112" width="270" height="116" rx="10" fill="#f9fafb" stroke="#e5e7eb"/>
  <rect x="892" y="140" width="18" height="18" fill="#22d3ee" stroke="#0891b2"/>
  <text x="920" y="154" font-family="Arial, sans-serif" font-size="14" font-weight="700" fill="#0891b2">HGEMM</text>
  <rect x="892" y="174" width="18" height="18" fill="#f97316"/>
  <text x="920" y="188" font-family="Arial, sans-serif" font-size="14" fill="#111827">Torch hipBLAS</text>
  <text x="892" y="214" font-family="Arial, sans-serif" font-size="13" fill="#4b5563">Speedup = HGEMM / hipBLAS</text>

  <line x1="150" y1="515" x2="830" y2="515" stroke="#111827" stroke-width="1.5"/>
  <line x1="150" y1="125" x2="150" y2="515" stroke="#111827" stroke-width="1.5"/>
  <text x="34" y="320" transform="rotate(-90 34 320)" font-family="Arial, sans-serif" font-size="14" fill="#374151">BF16 throughput (TFLOPS, higher is better)</text>

  <g font-family="Arial, sans-serif" font-size="12" fill="#6b7280">
    <line x1="150" y1="515" x2="830" y2="515" stroke="#e5e7eb"/>
    <text x="136" y="519" text-anchor="end">0</text>
    <line x1="150" y1="417.5" x2="830" y2="417.5" stroke="#e5e7eb"/>
    <text x="136" y="421.5" text-anchor="end">500</text>
    <line x1="150" y1="320" x2="830" y2="320" stroke="#e5e7eb"/>
    <text x="136" y="324" text-anchor="end">1000</text>
    <line x1="150" y1="222.5" x2="830" y2="222.5" stroke="#e5e7eb"/>
    <text x="136" y="226.5" text-anchor="end">1500</text>
    <line x1="150" y1="125" x2="830" y2="125" stroke="#e5e7eb"/>
    <text x="136" y="129" text-anchor="end">2000</text>
  </g>

  <g font-family="Arial, sans-serif">
    <rect x="167" y="211.56" width="28" height="303.44" rx="4" fill="#22d3ee" stroke="#0891b2" stroke-width="1"/>
    <rect x="201" y="214.31" width="28" height="300.69" rx="4" fill="#f97316"/>
    <text x="195" y="202" text-anchor="end" font-size="12" font-weight="700" fill="#0891b2">1556.1</text>
    <text x="201" y="204" text-anchor="start" font-size="12" fill="#111827">1542.0</text>
    <text x="198" y="544" text-anchor="middle" font-size="12" fill="#111827">16384x16384x16384</text>
    <text x="198" y="566" text-anchor="middle" font-size="12" fill="#4b5563">HT, GM4, bias</text>
    <rect x="156" y="586" width="84" height="24" rx="12" fill="#ecfdf5" stroke="#bbf7d0"/>
    <text x="198" y="603" text-anchor="middle" font-size="12" font-weight="700" fill="#047857">1.009x</text>
  </g>

  <g font-family="Arial, sans-serif">
    <rect x="275" y="202.92" width="28" height="312.08" rx="4" fill="#22d3ee" stroke="#0891b2" stroke-width="1"/>
    <rect x="309" y="197.99" width="28" height="317.01" rx="4" fill="#f97316"/>
    <text x="303" y="193" text-anchor="end" font-size="12" font-weight="700" fill="#0891b2">1600.4</text>
    <text x="309" y="188" text-anchor="start" font-size="12" fill="#111827">1625.7</text>
    <text x="306" y="544" text-anchor="middle" font-size="12" fill="#111827">8192x8192x8192</text>
    <text x="306" y="566" text-anchor="middle" font-size="12" fill="#4b5563">HT, bias</text>
    <rect x="264" y="586" width="84" height="24" rx="12" fill="#eff6ff" stroke="#bfdbfe"/>
    <text x="306" y="603" text-anchor="middle" font-size="12" font-weight="700" fill="#1d4ed8">0.984x</text>
  </g>

  <g font-family="Arial, sans-serif">
    <rect x="383" y="230.53" width="28" height="284.47" rx="4" fill="#22d3ee" stroke="#0891b2" stroke-width="1"/>
    <rect x="417" y="251.98" width="28" height="263.02" rx="4" fill="#f97316"/>
    <text x="411" y="221" text-anchor="end" font-size="12" font-weight="700" fill="#0891b2">1458.8</text>
    <text x="417" y="242" text-anchor="start" font-size="12" fill="#111827">1348.8</text>
    <text x="414" y="544" text-anchor="middle" font-size="12" fill="#111827">8160x8160x8160</text>
    <text x="414" y="566" text-anchor="middle" font-size="12" fill="#4b5563">HT, bias, tail</text>
    <rect x="372" y="586" width="84" height="24" rx="12" fill="#ecfdf5" stroke="#bbf7d0"/>
    <text x="414" y="603" text-anchor="middle" font-size="12" font-weight="700" fill="#047857">1.082x</text>
  </g>

  <g font-family="Arial, sans-serif">
    <rect x="491" y="206.69" width="28" height="308.31" rx="4" fill="#22d3ee" stroke="#0891b2" stroke-width="1"/>
    <rect x="525" y="222.05" width="28" height="292.95" rx="4" fill="#f97316"/>
    <text x="519" y="197" text-anchor="end" font-size="12" font-weight="700" fill="#0891b2">1581.1</text>
    <text x="525" y="212" text-anchor="start" font-size="12" fill="#111827">1497.2</text>
    <text x="522" y="544" text-anchor="middle" font-size="12" fill="#111827">4096x4096x8192</text>
    <text x="522" y="566" text-anchor="middle" font-size="12" fill="#4b5563">HT, GM4, bias</text>
    <rect x="480" y="586" width="84" height="24" rx="12" fill="#ecfdf5" stroke="#bbf7d0"/>
    <text x="522" y="603" text-anchor="middle" font-size="12" font-weight="700" fill="#047857">1.056x</text>
  </g>

  <g font-family="Arial, sans-serif">
    <rect x="599" y="226.48" width="28" height="288.52" rx="4" fill="#22d3ee" stroke="#0891b2" stroke-width="1"/>
    <rect x="633" y="223.48" width="28" height="291.52" rx="4" fill="#f97316"/>
    <text x="627" y="216" text-anchor="end" font-size="12" font-weight="700" fill="#0891b2">1479.6</text>
    <text x="633" y="213" text-anchor="start" font-size="12" fill="#111827">1495.0</text>
    <text x="630" y="544" text-anchor="middle" font-size="12" fill="#111827">4096x4096x4096</text>
    <text x="630" y="566" text-anchor="middle" font-size="12" fill="#4b5563">HT, bias</text>
    <rect x="588" y="586" width="84" height="24" rx="12" fill="#eff6ff" stroke="#bfdbfe"/>
    <text x="630" y="603" text-anchor="middle" font-size="12" font-weight="700" fill="#1d4ed8">0.990x</text>
  </g>

  <g font-family="Arial, sans-serif">
    <rect x="707" y="374.31" width="28" height="140.69" rx="4" fill="#22d3ee" stroke="#0891b2" stroke-width="1"/>
    <rect x="741" y="395.02" width="28" height="119.98" rx="4" fill="#f97316"/>
    <text x="735" y="364" text-anchor="end" font-size="12" font-weight="700" fill="#0891b2">721.5</text>
    <text x="741" y="385" text-anchor="start" font-size="12" fill="#111827">615.3</text>
    <text x="738" y="544" text-anchor="middle" font-size="12" fill="#111827">2048x2048x2048</text>
    <text x="738" y="566" text-anchor="middle" font-size="12" fill="#4b5563">FT, bias</text>
    <rect x="696" y="586" width="84" height="24" rx="12" fill="#ecfdf5" stroke="#bbf7d0"/>
    <text x="738" y="603" text-anchor="middle" font-size="12" font-weight="700" fill="#047857">1.173x</text>
  </g>

  <text x="870" y="286" font-family="Arial, sans-serif" font-size="15" font-weight="700" fill="#111827">Summary</text>
  <text x="870" y="314" font-family="Arial, sans-serif" font-size="13" fill="#374151">Best speedup: 2048x2048x2048, 1.173x</text>
  <text x="870" y="338" font-family="Arial, sans-serif" font-size="13" fill="#374151">Peak HGEMM:</text>
  <text x="870" y="362" font-family="Arial, sans-serif" font-size="13" fill="#374151">8192x8192x8192, 1600.4 TFLOPS</text>
  <text x="870" y="386" font-family="Arial, sans-serif" font-size="13" fill="#374151">Profiler calls: 100 per kernel</text>
  <text x="870" y="410" font-family="Arial, sans-serif" font-size="13" fill="#374151">Shapes: 6 BF16 benchmark cases</text>
</svg>
